ply
format ascii 1.0
comment Created by Open3D
element vertex 2692
property double x
property double y
property double z
end_header
-0.608153 0 0.201893
-0.609765 -0.0598748 0.152065
-0.610054 -0.0465693 0.143115
-0.610255 -0.026611 0.136933
-0.675464 -0.0598748 0.151251
-0.672617 -0.0465693 0.142387
-0.67065 -0.026611 0.136264
-0.732994 -0.0598748 0.14904
-0.727535 -0.0465693 0.140409
-0.723765 -0.026611 0.134448
-0.774597 -0.0465693 0.136559
-0.769361 -0.026611 0.130912
-0.813583 -0.0465693 0.130212
-0.807201 -0.026611 0.125082
-0.844281 -0.0465693 0.120742
-0.837046 -0.026611 0.116386
-0.918741 -0.0598748 0.129445
-0.866475 -0.0465693 0.107526
-0.858659 -0.026611 0.104248
-0.934436 -0.0598748 0.102262
-0.879949 -0.0465693 0.0899404
-0.871801 -0.026611 0.0880974
-0.959886 -0.026611 0.0673592
-0.939682 -0.0598748 0.0673592
-0.884488 -0.0465693 0.0673592
-0.876234 -0.026611 0.0673592
-0.579956 -0.0465693 0.14316
-0.585623 -0.026611 0.136968
-0.570713 -0.045621 0.140016
-0.56585 -0.0478115 0.134032
-0.565771 -0.0529972 0.125716
-0.565771 -0.0529972 0.125716
-0.575844 -0.0259044 0.134282
-0.571357 -0.0294831 0.117767
-0.571357 -0.0294831 0.117767
-0.579531 0 0.132151
-0.579531 0 0.132151
-0.574471 0 0.125252
-0.574471 0 0.125252
-0.910371 0.026611 0.160536
-0.937874 0.026611 0.137468
-0.954382 0.026611 0.106773
-0.946233 0.0465693 0.10493
-0.934436 0.0598748 0.102262
-0.959886 0.026611 0.0673592
-0.951632 0.0465693 0.0673592
-0.939682 0.0598748 0.0673592
-0.925514 0.0665276 0.0673592
-0.579956 0.0465693 0.14316
-0.585623 0.026611 0.136968
-0.552285 0.0711099 0.157043
-0.550432 0.078879 0.154608
-0.550432 0.078879 0.154608
-0.562527 0.0613734 0.151375
-0.557871 0.0648244 0.147312
-0.564307 0.0594663 0.148643
-0.559631 0.0627766 0.144067
-0.570713 0.045621 0.140016
-0.56585 0.0478115 0.134032
-0.565771 0.0529972 0.125716
-0.565771 0.0529972 0.125716
-0.575844 0.0259044 0.134282
-0.570852 0.0268963 0.127568
-0.571357 0.0294831 0.117767
-0.571357 0.0294831 0.117767
-0.956041 -0.026611 0.0235601
-0.947938 -0.0465693 0.0253719
-0.936206 -0.0598748 0.0279948
-0.922298 -0.0665276 0.0311044
-0.907663 -0.0665276 0.0343759
-0.882023 -0.0465693 0.0401086
-0.873919 -0.026611 0.0419202
-0.944422 -0.026611 -0.0194794
-0.936764 -0.0465693 -0.0162977
-0.925677 -0.0598748 -0.0116915
-0.912532 -0.0665276 -0.0062303
-0.898702 -0.0665276 -0.00048411
-0.885558 -0.0598748 0.00497707
-0.874471 -0.0465693 0.00958356
-0.866813 -0.026611 0.012765
-0.863955 0 0.0139523
-0.863955 0 0.0139523
-0.927485 0 -0.0632012
-0.924899 -0.026611 -0.0616328
-0.91797 -0.0465693 -0.0574292
-0.907937 -0.0598748 -0.0513433
-0.896043 -0.0665276 -0.0441281
-0.883529 -0.0665276 -0.0365365
-0.871635 -0.0598748 -0.0293216
-0.861602 -0.0465693 -0.0232356
-0.854673 -0.026611 -0.0190321
-0.89956 0 -0.104627
-0.897347 -0.026611 -0.102772
-0.891418 -0.0465693 -0.0978014
-0.882833 -0.0598748 -0.090605
-0.872657 -0.0665276 -0.0820731
-0.861948 -0.0665276 -0.0730961
-0.851771 -0.0598748 -0.0645642
-0.843186 -0.0465693 -0.0573679
-0.837257 -0.026611 -0.0523971
-0.86338 0 -0.144852
-0.861638 -0.026611 -0.142771
-0.85697 -0.0465693 -0.137194
-0.818992 -0.0465693 -0.091833
-0.814323 -0.026611 -0.0862566
-0.818823 0 -0.183782
-0.817644 -0.026611 -0.181501
-0.80449 -0.0665276 -0.15604
-0.793362 -0.0598748 -0.134503
-0.788788 -0.0465693 -0.125651
-0.785629 -0.026611 -0.119536
-0.765766 0 -0.221327
-0.765239 -0.026611 -0.218836
-0.759361 -0.0665276 -0.191029
-0.754389 -0.0598748 -0.167508
-0.752345 -0.0465693 -0.15784
-0.750933 -0.026611 -0.151162
-0.704084 0 -0.257394
-0.704294 -0.026611 -0.254648
-0.704856 -0.0465693 -0.247288
-0.70567 -0.0598748 -0.236633
-0.706635 -0.0665276 -0.224
-0.707651 -0.0665276 -0.210708
-0.708616 -0.0598748 -0.198076
-0.70943 -0.0465693 -0.187421
-0.709993 -0.026611 -0.180061
-0.710203 0 -0.177315
-0.710203 0 -0.177315
-0.683159 -0.026611 -0.19426
-0.672494 -0.0253058 -0.19712
-0.663828 -0.0263092 -0.192884
-0.659909 -0.0293005 -0.182905
-0.659909 -0.0293005 -0.182905
-0.956041 0.026611 0.0235601
-0.947938 0.0465693 0.0253719
-0.936206 0.0598748 0.0279948
-0.922298 0.0665276 0.0311044
-0.907663 0.0665276 0.0343759
-0.944422 0.026611 -0.0194794
-0.936764 0.0465693 -0.0162977
-0.925677 0.0598748 -0.0116915
-0.912532 0.0665276 -0.0062303
-0.898702 0.0665276 -0.00048411
-0.885558 0.0598748 0.00497707
-0.924899 0.026611 -0.0616328
-0.91797 0.0465693 -0.0574292
-0.907937 0.0598748 -0.0513433
-0.896043 0.0665276 -0.0441281
-0.883529 0.0665276 -0.0365365
-0.871635 0.0598748 -0.0293216
-0.861602 0.0465693 -0.0232356
-0.897347 0.026611 -0.102772
-0.891418 0.0465693 -0.0978014
-0.882833 0.0598748 -0.090605
-0.872657 0.0665276 -0.0820731
-0.861948 0.0665276 -0.0730961
-0.851771 0.0598748 -0.0645642
-0.843186 0.0465693 -0.0573679
-0.861638 0.026611 -0.142771
-0.85697 0.0465693 -0.137194
-0.85021 0.0598748 -0.129121
-0.842196 0.0665276 -0.119549
-0.833765 0.0665276 -0.109478
-0.825751 0.0598748 -0.0999066
-0.818992 0.0465693 -0.091833
-0.817644 0.026611 -0.181501
-0.814485 0.0465693 -0.175387
-0.809912 0.0598748 -0.166535
-0.80449 0.0665276 -0.15604
-0.798784 0.0665276 -0.144998
-0.793362 0.0598748 -0.134503
-0.788788 0.0465693 -0.125651
-0.765239 0.026611 -0.218836
-0.763827 0.0465693 -0.212158
-0.761783 0.0598748 -0.202491
-0.759361 0.0665276 -0.191029
-0.756811 0.0665276 -0.178969
-0.754389 0.0598748 -0.167508
-0.752345 0.0465693 -0.15784
-0.704294 0.026611 -0.254648
-0.704856 0.0465693 -0.247288
-0.70567 0.0598748 -0.236633
-0.706635 0.0665276 -0.224
-0.707651 0.0665276 -0.210708
-0.708616 0.0598748 -0.198076
-0.70943 0.0465693 -0.187421
-0.709993 0.026611 -0.180061
-0.683159 0.026611 -0.19426
-0.678619 0.0559565 -0.210627
-0.676878 0.0598748 -0.214482
-0.670283 0.0665276 -0.229756
-0.672494 0.0253058 -0.19712
-0.659909 0.0293005 -0.182905
-0.659909 0.0293005 -0.182905
-0.6686 0.0542413 -0.211111
-0.661658 0.0667968 -0.228596
-0.656323 0.0709243 -0.227165
-0.653856 0.0791281 -0.225339
-0.653856 0.0791281 -0.225339
0.773404 0 0.246984
0.773404 0 0.246984
0.77751 -0.0133055 0.246984
0.80445 -0.0299374 0.246984
0.823341 -0.0332638 0.246984
0.781247 0 0.253636
0.781247 0 0.253636
0.785872 -0.0136097 0.253744
0.798267 -0.023817 0.254033
0.816212 -0.0306218 0.254451
0.89909 -0.023817 0.256382
0.911485 -0.0136097 0.25667
0.91611 0 0.256778
0.790284 -0.014425 0.258804
0.804044 -0.0252437 0.259279
0.823967 -0.0324562 0.259968
0.929742 -0.014425 0.263623
0.934877 0 0.2638
0.791209 -0.0156052 0.262166
0.80624 -0.0273092 0.262739
0.906746 -0.0351118 0.266572
0.928508 -0.0273092 0.267402
0.943539 -0.0156052 0.267976
0.789115 -0.0170045 0.263838
0.805246 -0.0297579 0.264432
0.8286 -0.0382602 0.265293
0.784465 -0.0184768 0.263822
0.801453 -0.0323345 0.264373
0.795254 -0.0347833 0.262582
0.88237 -0.0496904 0.264861
0.842973 -0.0526411 0.26011
0.874897 -0.0526411 0.2607
0.905238 -0.0473769 0.261261
0.930829 -0.0368487 0.261734
0.948506 -0.0210564 0.262061
0.759842 -0.0218717 0.2537
0.777203 -0.0382754 0.25387
0.802339 -0.0492112 0.254115
0.832139 -0.0546792 0.254407
0.863494 -0.0546792 0.254714
0.893293 -0.0492112 0.255005
0.935791 -0.0218717 0.255421
0.942269 0 0.255484
0.766135 -0.0388078 0.246984
0.790036 -0.0498957 0.246984
0.818372 -0.0554397 0.246984
0.848186 -0.0554397 0.246984
0.900422 -0.0388078 0.246984
0.916931 -0.0221759 0.246984
0.923091 0 0.246984
0.77751 0.0133055 0.246984
0.788516 0.0232847 0.246984
0.80445 0.0299374 0.246984
0.823341 0.0332638 0.246984
0.843217 0.0332638 0.246984
0.785872 0.0136097 0.253744
0.837486 0.0340243 0.254947
0.859871 0.0340243 0.255468
0.911485 0.0136097 0.25667
0.790284 0.014425 0.258804
0.929742 0.014425 0.263623
0.880947 0.0390131 0.265588
0.885886 0.0461921 0.267117
0.905238 0.0473769 0.261261
0.802339 0.0492112 0.254115
0.832139 0.0546792 0.254407
0.935791 0.0218717 0.255421
0.749627 0.0221759 0.246984
0.790036 0.0498957 0.246984
0.818372 0.0554397 0.246984
0.900422 0.0388078 0.246984
0.916931 0.0221759 0.246984
0.728069 -0.0409904 0.211784
0.74656 -0.0527019 0.210165
0.768482 -0.0585577 0.208246
0.791549 -0.0585576 0.206227
0.813471 -0.0527019 0.204308
0.831962 -0.0409904 0.202689
0.844734 -0.0234231 0.201571
0.8495 0 0.201154
0.688438 0 0.173927
0.688438 0 0.173927
0.692341 -0.0267656 0.172813
0.702804 -0.0468398 0.16983
0.71795 -0.0602225 0.16551
0.735908 -0.0669139 0.160389
0.754803 -0.0669139 0.155001
0.772761 -0.0602225 0.14988
0.787907 -0.0468398 0.145561
0.79837 -0.0267656 0.142577
0.802274 0 0.141464
0.672504 0 0.131392
0.672504 0 0.131392
0.675926 -0.0316047 0.129367
0.685097 -0.0553082 0.123941
0.698375 -0.0711106 0.116084
0.714118 -0.0790118 0.106771
0.730681 -0.0790118 0.0969703
0.746423 -0.0711106 0.0876561
0.759701 -0.0553082 0.0798
0.768873 -0.0316047 0.0743735
0.772295 0 0.0723485
0.658048 0 0.0883031
0.658048 0 0.0883031
0.661217 -0.0373418 0.0852147
0.669709 -0.0653482 0.0769377
0.682004 -0.0840192 0.0649546
0.69658 -0.0933546 0.0507478
0.711916 -0.0933546 0.0357997
0.726492 -0.0840192 0.021593
0.738787 -0.0653482 0.0096099
0.747279 -0.0373418 0.00133281
0.750448 0 -0.00175554
0.64039 0 0.0472469
0.64039 0 0.0472469
0.643381 -0.0433783 0.0430063
0.651397 -0.075912 0.0316409
0.663004 -0.0976012 0.0151864
0.676763 -0.108446 -0.00432088
0.691241 -0.108446 -0.0248466
0.705001 -0.0976012 -0.0443541
0.716607 -0.075912 -0.0608083
0.724624 -0.0433783 -0.0721734
0.727615 0 -0.0764144
0.614846 0 0.0108107
0.614846 0 0.0108107
0.617584 -0.0491154 0.00539231
0.624921 -0.085952 -0.00912914
0.635544 -0.11051 -0.030153
0.648138 -0.122789 -0.055078
0.661388 -0.122789 -0.0813035
0.673982 -0.11051 -0.106228
0.684605 -0.085952 -0.127252
0.691942 -0.0491154 -0.141774
0.694679 0 -0.147192
0.576737 0 -0.0184184
0.576737 0 -0.0184184
0.578993 -0.0539546 -0.0249765
0.585039 -0.0944205 -0.0425522
0.593793 -0.121398 -0.0679981
0.604171 -0.134886 -0.0981657
0.615091 -0.134886 -0.129907
0.625469 -0.121398 -0.160074
0.634223 -0.0944205 -0.18552
0.640269 -0.0539546 -0.203096
0.642525 0 -0.209654
0.522773 -0.0572971 -0.0454495
0.52651 -0.10027 -0.0658078
0.53192 -0.128918 -0.0952821
0.538333 -0.143243 -0.130226
0.545081 -0.143243 -0.166992
0.551495 -0.128918 -0.201936
0.556904 -0.10027 -0.23141
0.560641 -0.0572971 -0.251769
0.562035 0 -0.259365
0.516492 -0.0573966 -0.0460821
0.518454 -0.0927958 -0.063074
0.517423 -0.100511 -0.0669401
0.517475 -0.101654 -0.0681454
0.516448 -0.129413 -0.0976879
0.518254 -0.135191 -0.112048
0.51896 -0.143884 -0.133859
0.522054 -0.143883 -0.155454
0.52257 -0.143938 -0.171875
0.526171 -0.133535 -0.197776
0.525594 -0.129595 -0.208187
0.528305 -0.10136 -0.238254
0.528271 -0.100824 -0.23885
0.52863 -0.0956424 -0.241355
0.523408 -0.0576955 -0.26188
0.525571 0 -0.26942
0.507913 -0.0571079 -0.0465264
0.502139 -0.0583672 -0.0432611
0.498586 -0.0612861 -0.0359812
0.498586 -0.0612861 -0.0359812
0.510179 -0.0926795 -0.0633015
0.504705 -0.0949124 -0.0607709
0.501227 -0.0998135 -0.0550855
0.501227 -0.0998135 -0.0550855
0.50921 -0.100476 -0.0670865
0.503831 -0.102923 -0.0646939
0.509284 -0.101637 -0.0682888
0.503924 -0.104113 -0.0659434
0.508706 -0.129954 -0.0977693
0.503858 -0.133167 -0.0964677
0.50067 -0.139651 -0.0934374
0.50067 -0.139651 -0.0934374
0.510704 -0.135933 -0.112204
0.506037 -0.139255 -0.111352
0.502984 -0.145905 -0.109185
0.502984 -0.145905 -0.109185
0.511648 -0.144946 -0.134124
0.515042 -0.145182 -0.155902
0.51575 -0.145408 -0.17245
0.519822 -0.13518 -0.198678
0.519435 -0.131324 -0.209074
0.523508 -0.0972784 -0.242609
0.521408 0 -0.271222
0.728069 0.0409904 0.211784
0.74656 0.0527019 0.210165
0.768482 0.0585577 0.208246
0.791549 0.0585576 0.206227
0.813471 0.0527019 0.204308
0.831962 0.0409904 0.202689
0.844734 0.0234231 0.201571
0.692341 0.0267656 0.172813
0.702804 0.0468398 0.16983
0.71795 0.0602225 0.16551
0.735908 0.0669139 0.160389
0.754803 0.0669139 0.155001
0.772761 0.0602225 0.14988
0.787907 0.0468398 0.145561
0.79837 0.0267656 0.142577
0.675926 0.0316047 0.129367
0.685097 0.0553082 0.123941
0.698375 0.0711106 0.116084
0.714118 0.0790118 0.106771
0.730681 0.0790118 0.0969703
0.746423 0.0711106 0.0876561
0.759701 0.0553082 0.0798
0.768873 0.0316047 0.0743735
0.661217 0.0373418 0.0852147
0.669709 0.0653482 0.0769377
0.682004 0.0840192 0.0649546
0.69658 0.0933546 0.0507478
0.711916 0.0933546 0.0357997
0.726492 0.0840192 0.021593
0.738787 0.0653482 0.0096099
0.747279 0.0373418 0.00133281
0.643381 0.0433783 0.0430063
0.651397 0.075912 0.0316409
0.663004 0.0976012 0.0151864
0.676763 0.108446 -0.00432088
0.691241 0.108446 -0.0248466
0.705001 0.0976012 -0.0443541
0.716607 0.075912 -0.0608083
0.724624 0.0433783 -0.0721734
0.617584 0.0491154 0.00539231
0.624921 0.085952 -0.00912914
0.635544 0.11051 -0.030153
0.648138 0.122789 -0.055078
0.661388 0.122789 -0.0813035
0.673982 0.11051 -0.106228
0.684605 0.085952 -0.127252
0.691942 0.0491154 -0.141774
0.578993 0.0539546 -0.0249765
0.585039 0.0944205 -0.0425522
0.593793 0.121398 -0.0679981
0.604171 0.134886 -0.0981657
0.615091 0.134886 -0.129907
0.625469 0.121398 -0.160074
0.634223 0.0944205 -0.18552
0.640269 0.0539546 -0.203096
0.522773 0.0572971 -0.0454495
0.560641 0.0572971 -0.251769
0.523408 0.0576955 -0.26188
0.518985 0.058677 -0.263494
0.516305 0.0596728 -0.265387
0.514389 0.0615294 -0.269138
0.514389 0.0615294 -0.269138
-0.190425 0 0.312526
-0.188517 -0.0218069 0.312526
-0.182852 -0.0429513 0.312526
-0.1736 -0.0627906 0.312526
-0.161045 -0.080722 0.312526
-0.145566 -0.0962007 0.312526
-0.127634 -0.108756 0.312526
-0.107795 -0.118008 0.312526
-0.0866508 -0.123673 0.312526
-0.0648439 -0.125581 0.312526
-0.236707 0 0.303532
-0.234096 -0.0298437 0.303532
-0.226342 -0.0587806 0.303532
-0.213681 -0.0859315 0.303532
-0.196498 -0.110471 0.303532
-0.175315 -0.131655 0.303532
-0.150775 -0.148838 0.303532
-0.123624 -0.161498 0.303532
-0.0946875 -0.169252 0.303532
-0.0648438 -0.171863 0.303532
-0.286685 0 0.295648
-0.283314 -0.0385223 0.295648
-0.273306 -0.075874 0.295648
-0.256964 -0.11092 0.295648
-0.234784 -0.142597 0.295648
-0.20744 -0.16994 0.295648
-0.175764 -0.19212 0.295648
-0.140718 -0.208462 0.295648
-0.103366 -0.218471 0.295648
-0.0648438 -0.221841 0.295648
-0.336416 0 0.288132
-0.33229 -0.047158 0.288132
-0.320038 -0.0928832 0.288132
-0.300032 -0.135786 0.288132
-0.27288 -0.174563 0.288132
-0.239407 -0.208036 0.288132
-0.20063 -0.235188 0.288132
-0.157727 -0.255194 0.288132
-0.112002 -0.267446 0.288132
-0.0648438 -0.271572 0.288132
-0.381959 0 0.280247
-0.377141 -0.0550664 0.280247
-0.362834 -0.10846 0.280247
-0.339473 -0.158557 0.280247
-0.307768 -0.203838 0.280247
-0.268681 -0.242924 0.280247
-0.223401 -0.27463 0.280247
-0.173303 -0.297991 0.280247
-0.11991 -0.312297 0.280247
-0.0648438 -0.317115 0.280247
-0.41937 0 0.271254
-0.413984 -0.0615629 0.271254
-0.39799 -0.121255 0.271254
-0.371873 -0.177263 0.271254
-0.336427 -0.227885 0.271254
-0.292729 -0.271583 0.271254
-0.242107 -0.307029 0.271254
-0.186099 -0.333146 0.271254
-0.126407 -0.34914 0.271254
-0.0648438 -0.354526 0.271254
-0.438937 -0.0659628 0.260412
-0.4218 -0.129921 0.260412
-0.393816 -0.189932 0.260412
-0.355837 -0.244172 0.260412
-0.309016 -0.290993 0.260412
-0.254776 -0.328972 0.260412
-0.194765 -0.356956 0.260412
-0.130807 -0.374093 0.260412
-0.0648438 -0.379864 0.260412
-0.362978 -0.250164 0.246984
-0.362978 -0.250164 0.246984
-0.315008 -0.298134 0.246984
-0.315008 -0.298134 0.246984
-0.259437 -0.337045 0.246984
-0.259437 -0.337045 0.246984
-0.197953 -0.365716 0.246984
-0.197953 -0.365716 0.246984
-0.132425 -0.383274 0.246984
-0.132425 -0.383274 0.246984
-0.0648438 -0.389186 0.246984
-0.0648438 -0.389186 0.246984
-0.0430369 -0.123673 0.312526
-0.0218926 -0.118008 0.312526
-0.0020533 -0.108756 0.312526
0.0158781 -0.0962007 0.312526
0.0313569 -0.080722 0.312526
0.0439126 -0.0627905 0.312526
0.0531638 -0.0429512 0.312526
0.0588294 -0.0218069 0.312526
0.0607372 5.48932e-09 0.312526
-0.0350002 -0.169252 0.303532
-0.00606327 -0.161498 0.303532
0.0210876 -0.148838 0.303532
0.0456275 -0.131655 0.303532
0.0668108 -0.110471 0.303532
0.0839938 -0.0859315 0.303532
0.0966545 -0.0587806 0.303532
0.104408 -0.0298437 0.303532
0.107019 7.51237e-09 0.303532
-0.0263216 -0.218471 0.295648
0.0110302 -0.208462 0.295648
0.0460765 -0.19212 0.295648
0.0777527 -0.16994 0.295648
0.105096 -0.142596 0.295648
0.127276 -0.11092 0.295648
0.143618 -0.075874 0.295648
0.153627 -0.0385222 0.295648
0.156997 9.69697e-09 0.295648
-0.0176858 -0.267446 0.288132
0.0280393 -0.255194 0.288132
0.0709422 -0.235188 0.288132
0.109719 -0.208036 0.288132
0.143193 -0.174563 0.288132
0.170345 -0.135786 0.288132
0.190351 -0.0928831 0.288132
0.202603 -0.047158 0.288132
0.206728 1.18708e-08 0.288132
-0.00977745 -0.312297 0.280247
0.0436158 -0.297991 0.280247
0.0937136 -0.274629 0.280247
0.138994 -0.242924 0.280247
0.17808 -0.203837 0.280247
0.209786 -0.158557 0.280247
0.233147 -0.10846 0.280247
0.247453 -0.0550664 0.280247
0.252271 1.38615e-08 0.280247
-0.003281 -0.34914 0.271254
0.0564113 -0.333146 0.271254
0.112419 -0.307029 0.271254
0.163041 -0.271583 0.271254
0.206739 -0.227885 0.271254
0.242185 -0.177263 0.271254
0.268302 -0.121255 0.271254
0.284296 -0.0615628 0.271254
0.289683 1.54968e-08 0.271254
0.0011189 -0.374093 0.260412
0.0650774 -0.356956 0.260412
0.125088 -0.328972 0.260412
0.179328 -0.290993 0.260412
0.226149 -0.244172 0.260412
0.264128 -0.189932 0.260412
0.292112 -0.129921 0.260412
0.30925 -0.0659627 0.260412
0.00273764 -0.383274 0.246984
0.00273764 -0.383274 0.246984
0.0682657 -0.365716 0.246984
0.0682657 -0.365716 0.246984
0.129749 -0.337045 0.246984
0.129749 -0.337045 0.246984
0.18532 -0.298134 0.246984
0.18532 -0.298134 0.246984
0.23329 -0.250164 0.246984
0.23329 -0.250164 0.246984
0.272201 -0.194593 0.246984
0.272201 -0.194593 0.246984
0.300872 -0.13311 0.246984
0.300872 -0.13311 0.246984
0.31843 -0.0675815 0.246984
0.31843 -0.0675815 0.246984
-0.0648439 0.0869376 0.323367
-0.0648439 0.125581 0.312526
-0.0430369 0.123673 0.312526
-0.0218926 0.118008 0.312526
-0.0020533 0.108756 0.312526
0.0158781 0.0962007 0.312526
0.0313569 0.080722 0.312526
0.0439126 0.0627905 0.312526
0.0531638 0.0429512 0.312526
0.0588294 0.0218069 0.312526
-0.0648439 0.171863 0.303532
-0.0350002 0.169252 0.303532
-0.00606327 0.161498 0.303532
0.0210876 0.148838 0.303532
0.0456275 0.131655 0.303532
0.0668108 0.110471 0.303532
0.0839938 0.0859315 0.303532
0.0966545 0.0587806 0.303532
0.104408 0.0298437 0.303532
-0.0648439 0.221841 0.295648
-0.0263216 0.218471 0.295648
0.0110302 0.208462 0.295648
0.0460765 0.19212 0.295648
0.0777527 0.16994 0.295648
0.105096 0.142596 0.295648
0.127276 0.11092 0.295648
0.143618 0.075874 0.295648
0.153627 0.0385222 0.295648
-0.0648439 0.271572 0.288132
-0.0176858 0.267446 0.288132
0.0280393 0.255194 0.288132
0.0709422 0.235188 0.288132
0.109719 0.208036 0.288132
0.143193 0.174563 0.288132
0.170345 0.135786 0.288132
0.190351 0.0928831 0.288132
0.202603 0.047158 0.288132
-0.0648439 0.317115 0.280247
-0.00977745 0.312297 0.280247
0.0436158 0.297991 0.280247
0.0937136 0.274629 0.280247
0.138994 0.242924 0.280247
0.17808 0.203837 0.280247
0.209786 0.158557 0.280247
0.233147 0.10846 0.280247
-0.0648439 0.354526 0.271254
-0.003281 0.34914 0.271254
0.0564113 0.333146 0.271254
0.112419 0.307029 0.271254
0.163041 0.271583 0.271254
0.206739 0.227885 0.271254
0.242185 0.177263 0.271254
0.268302 0.121255 0.271254
0.284296 0.0615628 0.271254
-0.0648439 0.379864 0.260412
0.0011189 0.374093 0.260412
0.0650774 0.356956 0.260412
0.125088 0.328972 0.260412
0.179328 0.290993 0.260412
0.226149 0.244172 0.260412
0.264128 0.189932 0.260412
0.292112 0.129921 0.260412
-0.0648439 0.389186 0.246984
-0.0648439 0.389186 0.246984
0.00273764 0.383274 0.246984
0.00273764 0.383274 0.246984
0.0682657 0.365716 0.246984
0.0682657 0.365716 0.246984
0.129749 0.337045 0.246984
0.129749 0.337045 0.246984
0.18532 0.298134 0.246984
0.18532 0.298134 0.246984
-0.0945783 0.0816946 0.323367
-0.0799404 0.0856168 0.323367
-0.188517 0.0218069 0.312526
-0.182852 0.0429513 0.312526
-0.1736 0.0627906 0.312526
-0.161045 0.080722 0.312526
-0.145566 0.0962007 0.312526
-0.127634 0.108756 0.312526
-0.107795 0.118008 0.312526
-0.0866508 0.123673 0.312526
-0.234096 0.0298437 0.303532
-0.226342 0.0587806 0.303532
-0.213681 0.0859315 0.303532
-0.196498 0.110471 0.303532
-0.175315 0.131655 0.303532
-0.150775 0.148838 0.303532
-0.123624 0.161498 0.303532
-0.0946875 0.169252 0.303532
-0.283314 0.0385223 0.295648
-0.273306 0.075874 0.295648
-0.256964 0.11092 0.295648
-0.234784 0.142597 0.295648
-0.20744 0.16994 0.295648
-0.175764 0.19212 0.295648
-0.140718 0.208462 0.295648
-0.103366 0.218471 0.295648
-0.33229 0.047158 0.288132
-0.320038 0.0928832 0.288132
-0.300032 0.135786 0.288132
-0.27288 0.174563 0.288132
-0.239407 0.208036 0.288132
-0.20063 0.235188 0.288132
-0.157727 0.255194 0.288132
-0.112002 0.267446 0.288132
-0.377141 0.0550664 0.280247
-0.362834 0.10846 0.280247
-0.339473 0.158557 0.280247
-0.307768 0.203838 0.280247
-0.268681 0.242924 0.280247
-0.223401 0.27463 0.280247
-0.173303 0.297991 0.280247
-0.11991 0.312297 0.280247
-0.413984 0.0615629 0.271254
-0.39799 0.121255 0.271254
-0.371873 0.177263 0.271254
-0.336427 0.227885 0.271254
-0.292729 0.271583 0.271254
-0.242107 0.307029 0.271254
-0.186099 0.333146 0.271254
-0.126407 0.34914 0.271254
-0.130807 0.374093 0.260412
-0.132425 0.383274 0.246984
-0.132425 0.383274 0.246984
-0.507083 -0.0779787 0.246984
-0.486823 -0.153588 0.246984
0.384217 1.96291e-08 0.246984
-0.0648439 0.419124 0.246984
-0.0648439 0.419124 0.246984
0.00793625 0.412756 0.246984
0.00793625 0.412756 0.246984
0.0785049 0.393848 0.246984
0.0785049 0.393848 0.246984
0.144718 0.362972 0.246984
0.144718 0.362972 0.246984
0.204564 0.321067 0.246984
0.204564 0.321067 0.246984
0.298128 0.209562 0.246984
0.298128 0.209562 0.246984
-0.0648439 0.4132 0.267358
-0.0648439 0.414411 0.273179
-0.0648439 0.417748 0.27609
-0.0648439 0.422717 0.276089
-0.0648439 0.428826 0.273179
-0.0648439 0.435581 0.267358
-0.0648439 0.442491 0.258626
-0.0648439 0.449061 0.246984
0.279157 0.288651 0.246984
0.324055 0.224531 0.246984
0.357136 0.153588 0.246984
0.377395 0.0779786 0.246984
-0.427816 0.209562 0.246984
-0.427816 0.209562 0.246984
-0.385911 0.269408 0.246984
-0.385911 0.269408 0.246984
-0.334251 0.321067 0.246984
-0.334251 0.321067 0.246984
-0.274406 0.362972 0.246984
-0.274406 0.362972 0.246984
-0.208193 0.393848 0.246984
-0.208193 0.393848 0.246984
-0.137624 0.412756 0.246984
-0.137624 0.412756 0.246984
-0.423904 0.207303 0.258626
-0.382451 0.266504 0.258626
-0.331348 0.317607 0.258626
-0.272147 0.35906 0.258626
-0.206648 0.389603 0.258626
-0.136839 0.408308 0.258626
-0.422686 0.2066 0.267358
-0.381373 0.2656 0.267358
-0.330444 0.31653 0.267358
-0.271444 0.357842 0.267358
-0.206167 0.388281 0.267358
-0.136595 0.406923 0.267358
-0.423735 0.207206 0.273179
-0.382301 0.266379 0.273179
-0.331222 0.317458 0.273179
-0.27205 0.358891 0.273179
-0.206581 0.389419 0.273179
-0.136806 0.408116 0.273179
-0.426624 0.208874 0.27609
-0.384857 0.268523 0.27609
-0.333367 0.320014 0.27609
-0.273718 0.361781 0.27609
-0.207722 0.392555 0.27609
-0.137385 0.411402 0.27609
-0.430928 0.211359 0.276089
-0.388664 0.271717 0.276089
-0.276202 0.366084 0.276089
-0.138248 0.416295 0.276089
-0.436218 0.214413 0.273179
-0.279257 0.371374 0.273179
-0.139309 0.422311 0.273179
-0.442068 0.217791 0.267358
-0.34483 0.333675 0.267358
-0.282634 0.377224 0.267358
-0.213821 0.409312 0.267358
-0.140482 0.428964 0.267358
-0.448052 0.221245 0.258626
-0.349271 0.338968 0.258626
-0.286089 0.383208 0.258626
-0.216184 0.415805 0.258626
-0.141682 0.435768 0.258626
-0.507083 0.0779787 0.246984
-0.486823 0.153588 0.246984
-0.453742 0.224531 0.246984
-0.408845 0.288651 0.246984
-0.353495 0.344001 0.246984
-0.289374 0.388898 0.246984
-0.218432 0.42198 0.246984
-0.142822 0.442239 0.246984
-0.51017 -0.162086 0.194624
-0.475259 -0.236953 0.194624
-0.427877 -0.304621 0.194624
-0.369465 -0.363033 0.194624
-0.301797 -0.410415 0.194624
-0.226929 -0.445327 0.194624
-0.147137 -0.466707 0.194624
-0.0648438 -0.473906 0.194624
-0.532938 -0.170372 0.142449
-0.496242 -0.249068 0.142449
-0.446438 -0.320195 0.142449
-0.385039 -0.381594 0.142449
-0.313912 -0.431398 0.142449
-0.235216 -0.468095 0.142449
-0.151344 -0.490568 0.142449
-0.0648438 -0.498136 0.142449
-0.578059 -0.0904938 0.0906439
-0.554548 -0.178238 0.0906439
-0.516158 -0.260566 0.0906439
-0.464055 -0.334978 0.0906439
-0.399821 -0.399211 0.0906439
-0.32541 -0.451314 0.0906439
-0.243082 -0.489705 0.0906439
-0.155338 -0.513216 0.0906439
-0.0648438 -0.521133 0.0906439
-0.607126 0 0.0393931
-0.607126 0 0.0393931
-0.598888 -0.0941663 0.0393931
-0.574422 -0.185471 0.0393931
-0.534474 -0.271141 0.0393931
-0.480256 -0.348572 0.0393931
-0.413416 -0.415412 0.0393931
-0.335985 -0.46963 0.0393931
-0.250315 -0.509579 0.0393931
-0.15901 -0.534044 0.0393931
-0.0648438 -0.542282 0.0393931
-0.625811 0 -0.0111188
-0.625811 0 -0.0111188
-0.617289 -0.0974109 -0.0111188
-0.591981 -0.191862 -0.0111188
-0.550656 -0.280484 -0.0111188
-0.49457 -0.360583 -0.0111188
-0.425427 -0.429726 -0.0111188
-0.345327 -0.485812 -0.0111188
-0.256706 -0.527137 -0.0111188
-0.162255 -0.552445 -0.0111188
-0.0648438 -0.560967 -0.0111188
-0.641416 0 -0.0607065
-0.641416 0 -0.0607065
-0.632657 -0.100121 -0.0607065
-0.606645 -0.197199 -0.0607065
-0.56417 -0.288286 -0.0607065
-0.506524 -0.370614 -0.0607065
-0.435457 -0.44168 -0.0607065
-0.35313 -0.499326 -0.0607065
-0.262043 -0.541801 -0.0607065
-0.164965 -0.567813 -0.0607065
-0.0648438 -0.576572 -0.0607065
-0.653325 0 -0.109185
-0.653325 0 -0.109185
-0.644385 -0.102189 -0.109185
-0.617836 -0.201273 -0.109185
-0.574484 -0.294241 -0.109185
-0.515647 -0.378269 -0.109185
-0.443113 -0.450803 -0.109185
-0.359085 -0.50964 -0.109185
-0.266116 -0.552992 -0.109185
-0.167033 -0.579541 -0.109185
-0.0648438 -0.588482 -0.109185
-0.651867 -0.103508 -0.156371
-0.624975 -0.203871 -0.156371
-0.581063 -0.298039 -0.156371
-0.521467 -0.383152 -0.156371
-0.447996 -0.456623 -0.156371
-0.362883 -0.51622 -0.156371
-0.268715 -0.560131 -0.156371
-0.168352 -0.587023 -0.156371
-0.0648438 -0.596079 -0.156371
-0.627483 -0.204784 -0.202078
-0.583375 -0.299374 -0.202078
-0.523512 -0.384868 -0.202078
-0.449712 -0.458668 -0.202078
-0.364218 -0.518531 -0.202078
-0.269628 -0.562639 -0.202078
-0.168815 -0.589652 -0.202078
-0.0648438 -0.598748 -0.202078
0.0174491 -0.466707 0.194624
0.0972417 -0.445327 0.194624
0.172109 -0.410415 0.194624
0.239777 -0.363033 0.194624
0.29819 -0.304621 0.194624
0.345571 -0.236953 0.194624
0.380483 -0.162085 0.194624
0.401863 -0.082293 0.194624
0.409062 2.07151e-08 0.194624
0.0216565 -0.490568 0.142449
0.105529 -0.468095 0.142449
0.184224 -0.431398 0.142449
0.255351 -0.381594 0.142449
0.31675 -0.320195 0.142449
0.366554 -0.249068 0.142449
0.403251 -0.170372 0.142449
0.425724 -0.0865003 0.142449
0.433292 2.17742e-08 0.142449
0.0256499 -0.513216 0.0906439
0.113394 -0.489705 0.0906439
0.195723 -0.451314 0.0906439
0.270134 -0.399211 0.0906439
0.334367 -0.334978 0.0906439
0.38647 -0.260566 0.0906439
0.424861 -0.178238 0.0906439
0.448372 -0.0904937 0.0906439
0.456289 2.27794e-08 0.0906439
0.0293224 -0.534044 0.0393931
0.120628 -0.509579 0.0393931
0.206297 -0.46963 0.0393931
0.283728 -0.415412 0.0393931
0.350568 -0.348572 0.0393931
0.404786 -0.271141 0.0393931
0.444735 -0.185471 0.0393931
0.4692 -0.0941663 0.0393931
0.477438 2.37039e-08 0.0393931
0.0325671 -0.552445 -0.0111188
0.127018 -0.527137 -0.0111188
0.21564 -0.485812 -0.0111188
0.295739 -0.429726 -0.0111188
0.364882 -0.360583 -0.0111188
0.420968 -0.280484 -0.0111188
0.462293 -0.191862 -0.0111188
0.487601 -0.0974109 -0.0111188
0.0352769 -0.567813 -0.0607065
0.132356 -0.541801 -0.0607065
0.223442 -0.499326 -0.0607065
0.30577 -0.44168 -0.0607065
0.376836 -0.370614 -0.0607065
0.434483 -0.288286 -0.0607065
0.476957 -0.197199 -0.0607065
0.0373449 -0.579541 -0.109185
0.136429 -0.552992 -0.109185
0.229397 -0.50964 -0.109185
0.313425 -0.450803 -0.109185
0.385959 -0.378269 -0.109185
0.444796 -0.294241 -0.109185
0.488148 -0.201273 -0.109185
0.0386642 -0.587023 -0.156371
0.139027 -0.560131 -0.156371
0.233196 -0.51622 -0.156371
0.318308 -0.456623 -0.156371
0.391779 -0.383152 -0.156371
0.451376 -0.298039 -0.156371
0.495287 -0.203871 -0.156371
0.0391277 -0.589652 -0.202078
0.13994 -0.562639 -0.202078
0.23453 -0.518531 -0.202078
0.320024 -0.458668 -0.202078
0.393824 -0.384868 -0.202078
0.453687 -0.299374 -0.202078
0.497795 -0.204784 -0.202078
-0.0648439 0.473906 0.194624
0.0174491 0.466707 0.194624
0.0972417 0.445327 0.194624
0.172109 0.410415 0.194624
0.239777 0.363033 0.194624
0.29819 0.304621 0.194624
0.345571 0.236953 0.194624
0.380483 0.162085 0.194624
0.401863 0.082293 0.194624
-0.0648439 0.498136 0.142449
0.0216565 0.490568 0.142449
0.105529 0.468095 0.142449
0.184224 0.431398 0.142449
0.255351 0.381594 0.142449
0.31675 0.320195 0.142449
0.366554 0.249068 0.142449
0.403251 0.170372 0.142449
0.425724 0.0865003 0.142449
-0.0648439 0.521133 0.0906439
0.0256499 0.513216 0.0906439
0.113394 0.489705 0.0906439
0.195723 0.451314 0.0906439
0.270134 0.399211 0.0906439
0.334367 0.334978 0.0906439
0.38647 0.260566 0.0906439
0.424861 0.178238 0.0906439
0.448372 0.0904937 0.0906439
-0.0648439 0.542282 0.0393931
0.0293224 0.534044 0.0393931
0.120628 0.509579 0.0393931
0.206297 0.46963 0.0393931
0.283728 0.415412 0.0393931
0.350568 0.348572 0.0393931
0.404786 0.271141 0.0393931
0.444735 0.185471 0.0393931
0.4692 0.0941663 0.0393931
-0.0648439 0.560967 -0.0111188
0.0325671 0.552445 -0.0111188
0.127018 0.527137 -0.0111188
0.21564 0.485812 -0.0111188
0.295739 0.429726 -0.0111188
0.364882 0.360583 -0.0111188
0.420968 0.280484 -0.0111188
0.462293 0.191862 -0.0111188
0.487601 0.0974109 -0.0111188
-0.0648439 0.576572 -0.0607065
0.0352769 0.567813 -0.0607065
0.132356 0.541801 -0.0607065
0.223442 0.499326 -0.0607065
0.30577 0.44168 -0.0607065
0.376836 0.370614 -0.0607065
0.434483 0.288286 -0.0607065
0.476957 0.197199 -0.0607065
-0.0648439 0.588482 -0.109185
0.0373449 0.579541 -0.109185
0.136429 0.552992 -0.109185
0.229397 0.50964 -0.109185
0.313425 0.450803 -0.109185
0.385959 0.378269 -0.109185
0.444796 0.294241 -0.109185
0.488148 0.201273 -0.109185
-0.0648439 0.596079 -0.156371
0.0386642 0.587023 -0.156371
0.139027 0.560131 -0.156371
0.233196 0.51622 -0.156371
0.318308 0.456623 -0.156371
0.391779 0.383152 -0.156371
0.451376 0.298039 -0.156371
0.495287 0.203871 -0.156371
-0.0648439 0.598748 -0.202078
0.0391277 0.589652 -0.202078
0.13994 0.562639 -0.202078
0.23453 0.518531 -0.202078
0.320024 0.458668 -0.202078
0.393824 0.384868 -0.202078
0.453687 0.299374 -0.202078
0.497795 0.204784 -0.202078
-0.51017 0.162086 0.194624
-0.475259 0.236953 0.194624
-0.427877 0.304621 0.194624
-0.369465 0.363033 0.194624
-0.301797 0.410415 0.194624
-0.226929 0.445327 0.194624
-0.147137 0.466707 0.194624
-0.555412 0.0865004 0.142449
-0.532938 0.170372 0.142449
-0.496242 0.249068 0.142449
-0.446438 0.320195 0.142449
-0.385039 0.381594 0.142449
-0.313912 0.431398 0.142449
-0.235216 0.468095 0.142449
-0.151344 0.490568 0.142449
-0.578059 0.0904938 0.0906439
-0.554548 0.178238 0.0906439
-0.516158 0.260566 0.0906439
-0.464055 0.334978 0.0906439
-0.399821 0.399211 0.0906439
-0.32541 0.451314 0.0906439
-0.243082 0.489705 0.0906439
-0.155338 0.513216 0.0906439
-0.598888 0.0941663 0.0393931
-0.574422 0.185471 0.0393931
-0.534474 0.271141 0.0393931
-0.480256 0.348572 0.0393931
-0.413416 0.415412 0.0393931
-0.335985 0.46963 0.0393931
-0.250315 0.509579 0.0393931
-0.15901 0.534044 0.0393931
-0.617289 0.0974109 -0.0111188
-0.591981 0.191862 -0.0111188
-0.550656 0.280484 -0.0111188
-0.49457 0.360583 -0.0111188
-0.425427 0.429726 -0.0111188
-0.345327 0.485812 -0.0111188
-0.256706 0.527137 -0.0111188
-0.162255 0.552445 -0.0111188
-0.632657 0.100121 -0.0607065
-0.606645 0.197199 -0.0607065
-0.56417 0.288286 -0.0607065
-0.506524 0.370614 -0.0607065
-0.435457 0.44168 -0.0607065
-0.35313 0.499326 -0.0607065
-0.262043 0.541801 -0.0607065
-0.164965 0.567813 -0.0607065
-0.644385 0.102189 -0.109185
-0.617836 0.201273 -0.109185
-0.574484 0.294241 -0.109185
-0.515647 0.378269 -0.109185
-0.443113 0.450803 -0.109185
-0.359085 0.50964 -0.109185
-0.266116 0.552992 -0.109185
-0.167033 0.579541 -0.109185
-0.651867 0.103508 -0.156371
-0.624975 0.203871 -0.156371
-0.581063 0.298039 -0.156371
-0.521467 0.383152 -0.156371
-0.447996 0.456623 -0.156371
-0.362883 0.51622 -0.156371
-0.268715 0.560131 -0.156371
-0.168352 0.587023 -0.156371
-0.627483 0.204784 -0.202078
-0.583375 0.299374 -0.202078
-0.523512 0.384868 -0.202078
-0.449712 0.458668 -0.202078
-0.364218 0.518531 -0.202078
-0.269628 0.562639 -0.202078
-0.168815 0.589652 -0.202078
-0.62266 -0.203028 -0.24452
-0.578929 -0.296808 -0.24452
-0.519579 -0.381568 -0.24452
-0.446412 -0.454736 -0.24452
-0.361651 -0.514086 -0.24452
-0.267872 -0.557816 -0.24452
-0.167924 -0.584597 -0.24452
-0.0648438 -0.593615 -0.24452
-0.609732 -0.198323 -0.282157
-0.567016 -0.289929 -0.282157
-0.509041 -0.372725 -0.282157
-0.437569 -0.444197 -0.282157
-0.354773 -0.502172 -0.282157
-0.263167 -0.544888 -0.282157
-0.165535 -0.571048 -0.282157
-0.0648438 -0.579858 -0.282157
-0.616278 -0.0972327 -0.315174
-0.591016 -0.191511 -0.315174
-0.549767 -0.27997 -0.315174
-0.493783 -0.359923 -0.315174
-0.424767 -0.428939 -0.315174
-0.344814 -0.484923 -0.315174
-0.256355 -0.526172 -0.315174
-0.162076 -0.551434 -0.315174
-0.0648438 -0.55994 -0.315174
-0.593023 -0.0931323 -0.343757
-0.568827 -0.183435 -0.343757
-0.529317 -0.268164 -0.343757
-0.475694 -0.344745 -0.343757
-0.409588 -0.410851 -0.343757
-0.333008 -0.464473 -0.343757
-0.248279 -0.503983 -0.343757
-0.157976 -0.52818 -0.343757
-0.0648438 -0.536327 -0.343757
-0.568556 -0.088818 -0.368089
-0.54548 -0.174937 -0.368089
-0.507801 -0.255741 -0.368089
-0.456662 -0.328775 -0.368089
-0.393618 -0.391818 -0.368089
-0.320585 -0.442957 -0.368089
-0.239781 -0.480636 -0.368089
-0.153662 -0.503712 -0.368089
-0.0648438 -0.511482 -0.368089
-0.545301 -0.0847176 -0.388355
-0.523291 -0.166861 -0.388355
-0.487351 -0.243935 -0.388355
-0.438573 -0.313596 -0.388355
-0.37844 -0.373729 -0.388355
-0.308778 -0.422507 -0.388355
-0.231705 -0.458447 -0.388355
-0.149561 -0.480457 -0.388355
-0.0648438 -0.487869 -0.388355
0.0382363 -0.584597 -0.24452
0.138184 -0.557816 -0.24452
0.231964 -0.514086 -0.24452
0.316724 -0.454736 -0.24452
0.389892 -0.381568 -0.24452
0.449242 -0.296807 -0.24452
0.492972 -0.203028 -0.24452
0.0358474 -0.571048 -0.282157
0.133479 -0.544888 -0.282157
0.225085 -0.502172 -0.282157
0.307881 -0.444197 -0.282157
0.379353 -0.372725 -0.282157
0.437328 -0.289929 -0.282157
0.480044 -0.198323 -0.282157
0.506205 -0.100691 -0.282157
0.0323888 -0.551434 -0.315174
0.126667 -0.526172 -0.315174
0.215126 -0.484923 -0.315174
0.295079 -0.428939 -0.315174
0.364096 -0.359923 -0.315174
0.420079 -0.27997 -0.315174
0.461328 -0.191511 -0.315174
0.48659 -0.0972326 -0.315174
0.495097 2.44758e-08 -0.315174
0.0282885 -0.52818 -0.343757
0.118591 -0.503983 -0.343757
0.20332 -0.464473 -0.343757
0.279901 -0.410851 -0.343757
0.346007 -0.344745 -0.343757
0.399629 -0.268164 -0.343757
0.439139 -0.183435 -0.343757
0.463336 -0.0931323 -0.343757
0.471483 2.34436e-08 -0.343757
0.0239741 -0.503712 -0.368089
0.110093 -0.480636 -0.368089
0.190897 -0.442957 -0.368089
0.263931 -0.391818 -0.368089
0.326974 -0.328775 -0.368089
0.378113 -0.255741 -0.368089
0.415792 -0.174937 -0.368089
0.438868 -0.0888179 -0.368089
0.446638 2.23576e-08 -0.368089
0.0198737 -0.480457 -0.388355
0.102017 -0.458447 -0.388355
0.179091 -0.422507 -0.388355
0.248752 -0.373729 -0.388355
0.308886 -0.313596 -0.388355
0.357663 -0.243934 -0.388355
0.393603 -0.166861 -0.388355
0.415613 -0.0847175 -0.388355
0.423025 2.13254e-08 -0.388355
-0.0648439 0.593615 -0.24452
0.0382363 0.584597 -0.24452
0.138184 0.557816 -0.24452
0.231964 0.514086 -0.24452
0.316724 0.454736 -0.24452
0.389892 0.381568 -0.24452
0.449242 0.296807 -0.24452
0.492972 0.203028 -0.24452
-0.0648439 0.579858 -0.282157
0.0358474 0.571048 -0.282157
0.133479 0.544888 -0.282157
0.225085 0.502172 -0.282157
0.307881 0.444197 -0.282157
0.379353 0.372725 -0.282157
0.437328 0.289929 -0.282157
0.480044 0.198323 -0.282157
0.506205 0.100691 -0.282157
-0.0648439 0.55994 -0.315174
0.0323888 0.551434 -0.315174
0.126667 0.526172 -0.315174
0.215126 0.484923 -0.315174
0.295079 0.428939 -0.315174
0.364096 0.359923 -0.315174
0.420079 0.27997 -0.315174
0.461328 0.191511 -0.315174
0.48659 0.0972326 -0.315174
-0.0648439 0.536327 -0.343757
0.0282885 0.52818 -0.343757
0.118591 0.503983 -0.343757
0.20332 0.464473 -0.343757
0.279901 0.410851 -0.343757
0.346007 0.344745 -0.343757
0.399629 0.268164 -0.343757
0.439139 0.183435 -0.343757
0.463336 0.0931323 -0.343757
-0.0648439 0.511482 -0.368089
0.0239741 0.503712 -0.368089
0.110093 0.480636 -0.368089
0.190897 0.442957 -0.368089
0.263931 0.391818 -0.368089
0.326974 0.328775 -0.368089
0.378113 0.255741 -0.368089
0.415792 0.174937 -0.368089
0.438868 0.0888179 -0.368089
-0.0648439 0.487869 -0.388355
0.0198737 0.480457 -0.388355
0.102017 0.458447 -0.388355
0.179091 0.422507 -0.388355
0.248752 0.373729 -0.388355
0.308886 0.313596 -0.388355
0.357663 0.243934 -0.388355
0.393603 0.166861 -0.388355
0.415613 0.0847175 -0.388355
0.169132 0.405258 -0.40474
0.23595 0.358472 -0.40474
0.293628 0.300793 -0.40474
0.340414 0.233976 -0.40474
0.374887 0.160049 -0.40474
0.395999 0.0812589 -0.40474
-0.62266 0.203028 -0.24452
-0.578929 0.296808 -0.24452
-0.519579 0.381568 -0.24452
-0.446412 0.454736 -0.24452
-0.361651 0.514086 -0.24452
-0.267872 0.557816 -0.24452
-0.167924 0.584597 -0.24452
-0.635892 0.100691 -0.282157
-0.609732 0.198323 -0.282157
-0.567016 0.289929 -0.282157
-0.509041 0.372725 -0.282157
-0.437569 0.444197 -0.282157
-0.354773 0.502172 -0.282157
-0.263167 0.544888 -0.282157
-0.165535 0.571048 -0.282157
-0.616278 0.0972327 -0.315174
-0.591016 0.191511 -0.315174
-0.549767 0.27997 -0.315174
-0.493783 0.359923 -0.315174
-0.424767 0.428939 -0.315174
-0.344814 0.484923 -0.315174
-0.256355 0.526172 -0.315174
-0.162076 0.551434 -0.315174
-0.593023 0.0931323 -0.343757
-0.568827 0.183435 -0.343757
-0.529317 0.268164 -0.343757
-0.475694 0.344745 -0.343757
-0.409588 0.410851 -0.343757
-0.333008 0.464473 -0.343757
-0.248279 0.503983 -0.343757
-0.157976 0.52818 -0.343757
-0.568556 0.088818 -0.368089
-0.54548 0.174937 -0.368089
-0.507801 0.255741 -0.368089
-0.456662 0.328775 -0.368089
-0.393618 0.391818 -0.368089
-0.320585 0.442957 -0.368089
-0.239781 0.480636 -0.368089
-0.153662 0.503712 -0.368089
-0.545301 0.0847176 -0.388355
-0.523291 0.166861 -0.388355
-0.487351 0.243935 -0.388355
-0.438573 0.313596 -0.388355
-0.37844 0.373729 -0.388355
-0.308778 0.422507 -0.388355
-0.231705 0.458447 -0.388355
-0.149561 0.480457 -0.388355
-0.467089 0 -0.454574
-0.460978 -0.0698492 -0.454574
-0.427666 0 -0.46018
-0.422154 -0.0630034 -0.46018
-0.405785 -0.124092 -0.46018
-0.379057 -0.181411 -0.46018
-0.342781 -0.233217 -0.46018
-0.298061 -0.277938 -0.46018
-0.246255 -0.314213 -0.46018
-0.188936 -0.340941 -0.46018
-0.127847 -0.35731 -0.46018
-0.0648438 -0.362822 -0.46018
-0.370871 0 -0.464862
-0.366221 -0.053141 -0.464862
-0.352415 -0.104667 -0.464862
-0.329871 -0.153013 -0.464862
-0.299274 -0.19671 -0.464862
-0.261554 -0.23443 -0.464862
-0.217857 -0.265027 -0.464862
-0.169511 -0.287571 -0.464862
-0.117985 -0.301378 -0.464862
-0.0648438 -0.306027 -0.464862
-0.293563 0 -0.468434
-0.290088 -0.0397167 -0.468434
-0.27977 -0.0782266 -0.468434
-0.262921 -0.11436 -0.468434
-0.240053 -0.147018 -0.468434
-0.211862 -0.175209 -0.468434
-0.179204 -0.198077 -0.468434
-0.14307 -0.214926 -0.468434
-0.104561 -0.225245 -0.468434
-0.0648438 -0.228719 -0.468434
-0.0648439 0 -0.471514
0.283511 -0.201123 -0.454574
0.313143 -0.137576 -0.454574
0.331291 -0.0698492 -0.454574
0.337402 1.75827e-08 -0.454574
-0.0018405 -0.35731 -0.46018
0.0592485 -0.340941 -0.46018
0.116567 -0.314213 -0.46018
0.168374 -0.277938 -0.46018
0.213094 -0.233217 -0.46018
0.249369 -0.181411 -0.46018
0.276097 -0.124092 -0.46018
0.292466 -0.0630033 -0.46018
0.297978 1.58594e-08 -0.46018
-0.0117028 -0.301378 -0.464862
0.0398235 -0.287571 -0.464862
0.0881696 -0.265027 -0.464862
0.131866 -0.23443 -0.464862
0.169586 -0.19671 -0.464862
0.200183 -0.153013 -0.464862
0.222727 -0.104667 -0.464862
0.236534 -0.053141 -0.464862
0.241183 1.33769e-08 -0.464862
-0.0251271 -0.225245 -0.468434
0.0133828 -0.214926 -0.468434
0.0495158 -0.198077 -0.468434
0.0821742 -0.175209 -0.468434
0.110365 -0.147018 -0.468434
0.133233 -0.11436 -0.468434
0.150082 -0.0782266 -0.468434
0.160401 -0.0397167 -0.468434
0.163876 9.99764e-09 -0.468434
0.0629137 5.58446e-09 -0.470714
0.148876 0.370174 -0.44823
0.30533 0.21372 -0.44823
0.336818 0.146193 -0.44823
-0.0648439 0.402245 -0.454574
0.00500537 0.396135 -0.454574
0.0727323 0.377987 -0.454574
0.136279 0.348355 -0.454574
0.193715 0.308138 -0.454574
0.243294 0.258558 -0.454574
0.283511 0.201123 -0.454574
0.313143 0.137576 -0.454574
0.331291 0.0698492 -0.454574
-0.0648439 0.362822 -0.46018
-0.0018405 0.35731 -0.46018
0.0592485 0.340941 -0.46018
0.116567 0.314213 -0.46018
0.168374 0.277938 -0.46018
0.213094 0.233217 -0.46018
0.249369 0.181411 -0.46018
0.276097 0.124092 -0.46018
0.292466 0.0630033 -0.46018
-0.0648439 0.306027 -0.464862
-0.0117028 0.301378 -0.464862
0.0398235 0.287571 -0.464862
0.0881696 0.265027 -0.464862
0.131866 0.23443 -0.464862
0.169586 0.19671 -0.464862
0.200183 0.153013 -0.464862
0.222727 0.104667 -0.464862
0.236534 0.053141 -0.464862
-0.0648439 0.228719 -0.468434
-0.0251271 0.225245 -0.468434
0.0133828 0.214926 -0.468434
0.0495158 0.198077 -0.468434
0.0821742 0.175209 -0.468434
0.110365 0.147018 -0.468434
0.133233 0.11436 -0.468434
0.150082 0.0782266 -0.468434
0.160401 0.0397167 -0.468434
-0.042659 0.125817 -0.470714
-0.000965044 0.110641 -0.470714
0.0172771 0.097868 -0.470714
0.0330242 0.082121 -0.470714
0.0457975 0.0638788 -0.470714
0.055209 0.0436957 -0.470714
-0.460978 0.0698492 -0.454574
-0.372982 0.258558 -0.454574
-0.323402 0.308138 -0.454574
-0.265967 0.348355 -0.454574
-0.20242 0.377987 -0.454574
-0.134693 0.396135 -0.454574
-0.422154 0.0630034 -0.46018
-0.405785 0.124092 -0.46018
-0.379057 0.181411 -0.46018
-0.342781 0.233217 -0.46018
-0.298061 0.277938 -0.46018
-0.246255 0.314213 -0.46018
-0.188936 0.340941 -0.46018
-0.127847 0.35731 -0.46018
-0.366221 0.053141 -0.464862
-0.352415 0.104667 -0.464862
-0.329871 0.153013 -0.464862
-0.299274 0.19671 -0.464862
-0.261554 0.23443 -0.464862
-0.217857 0.265027 -0.464862
-0.169511 0.287571 -0.464862
-0.117985 0.301378 -0.464862
-0.290088 0.0397167 -0.468434
-0.27977 0.0782266 -0.468434
-0.262921 0.11436 -0.468434
-0.240053 0.147018 -0.468434
-0.211862 0.175209 -0.468434
-0.179204 0.198077 -0.468434
-0.14307 0.214926 -0.468434
-0.104561 0.225245 -0.468434
0.531574 -0.0601619 -0.0938398
0.53518 -0.077351 -0.113432
0.539456 -0.0859456 -0.136661
0.551838 -0.0601619 -0.203922
0.554329 -0.0343782 -0.217455
0.555258 0 -0.222504
0.593233 -0.0566523 -0.067904
0.605986 -0.0809319 -0.104534
0.620183 -0.0728387 -0.14531
0.626019 -0.0566523 -0.16207
0.630049 -0.0323727 -0.173646
0.631553 0 -0.177966
0.674641 -0.0515712 -0.108288
0.679531 -0.0294693 -0.117696
0.681356 0 -0.121207
0.705714 -0.0455472 -0.0464686
0.711056 -0.026027 -0.0536401
0.713049 0 -0.0563159
0.727241 -0.0392089 0.0194973
0.732899 -0.0224051 0.0144864
0.73501 0 0.0126165
0.747231 -0.0331849 0.0857174
0.753341 -0.0189628 0.0826476
0.755621 0 0.0815022
0.716985 -0.0281039 0.160435
0.773689 -0.0281038 0.1483
0.780661 -0.0160593 0.146808
0.783262 0 0.146251
0.745383 -0.0245942 0.206774
0.757707 -0.0316211 0.206165
0.772317 -0.0351346 0.205443
0.78769 -0.0351346 0.204684
0.8023 -0.0316212 0.203962
0.814624 -0.0245942 0.203353
0.823136 -0.0140538 0.202932
0.826313 0 0.202775
0.493208 0 -0.0797491
0.493208 0 -0.0797491
0.490681 -0.0347164 -0.0854591
0.493111 -0.0781287 -0.120509
0.496254 -0.0854114 -0.140899
0.496624 -0.0867859 -0.144777
0.496649 -0.0867857 -0.144907
0.48451 9.6959e-09 -0.0800871
0.48451 9.6959e-09 -0.0800871
0.478736 1.35338e-08 -0.0764063
0.478736 1.35338e-08 -0.0764063
0.482177 -0.0347955 -0.0857141
0.485317 -0.0787549 -0.120982
0.480338 -0.0819391 -0.120053
0.477608 -0.0886524 -0.117738
0.477608 -0.0886524 -0.117738
0.488774 -0.0862404 -0.141526
0.484088 -0.0895161 -0.141386
0.489195 -0.0876611 -0.145444
0.48457 -0.0909636 -0.145447
0.489222 -0.0876623 -0.145575
0.484598 -0.0909647 -0.145582
0.531574 0.0601619 -0.0938398
0.53518 0.077351 -0.113432
0.539456 0.0859456 -0.136661
0.548231 0.077351 -0.184329
0.551838 0.0601619 -0.203922
0.554329 0.0343782 -0.217455
0.593233 0.0566523 -0.067904
0.599068 0.0728387 -0.0846639
0.613265 0.0809319 -0.12544
0.626019 0.0566523 -0.16207
0.630049 0.0323727 -0.173646
0.650337 0.0736731 -0.0615292
0.667562 0.0663058 -0.0946678
0.674641 0.0515712 -0.108288
0.679531 0.0294693 -0.117696
0.705714 0.0455472 -0.0464686
0.711056 0.026027 -0.0536401
0.699121 0.0560128 0.0444032
0.71905 0.0504115 0.0267521
0.727241 0.0392089 0.0194973
0.732899 0.0224051 0.0144864
0.716862 0.0474071 0.100975
0.738384 0.0426664 0.0901619
0.747231 0.0331849 0.0857174
0.753341 0.0189628 0.0826476
0.716985 0.0281039 0.160435
0.739043 0.0401484 0.155714
0.763597 0.0361335 0.150459
0.773689 0.0281038 0.1483
0.780661 0.0160593 0.146808
0.745383 0.0245942 0.206774
0.757707 0.0316211 0.206165
0.772317 0.0351346 0.205443
0.78769 0.0351346 0.204684
0.8023 0.0316212 0.203962
0.814624 0.0245942 0.203353
0.823136 0.0140538 0.202932
0.788516 0.0232847 0.246984
0.80445 0.0299374 0.246984
0.490681 0.0347164 -0.0854591
0.490843 0.0607717 -0.0998946
0.493111 0.0781287 -0.120509
0.496254 0.0854114 -0.140899
0.496624 0.0867859 -0.144777
0.496649 0.0867857 -0.144907
0.494449 0.086873 -0.171493
0.49451 0.0854361 -0.175642
0.493393 0.0782377 -0.196815
0.493193 0.0696704 -0.207339
0.485299 0.0348469 -0.234758
0.482177 0.0347955 -0.0857141
0.476575 0.036378 -0.0824923
0.47338 0.039697 -0.0754136
0.47338 0.039697 -0.0754136
0.482672 0.0611267 -0.100204
0.477357 0.0638461 -0.0981193
0.474373 0.0695674 -0.093347
0.474373 0.0695674 -0.093347
0.485317 0.0787549 -0.120982
0.480338 0.0819391 -0.120053
0.477608 0.0886524 -0.117738
0.477608 0.0886524 -0.117738
0.488774 0.0862404 -0.141526
0.484088 0.0895161 -0.141386
0.489195 0.0876611 -0.145444
0.48457 0.0909636 -0.145447
0.489222 0.0876623 -0.145575
0.484598 0.0909647 -0.145582
0.48745 0.0880251 -0.172245
0.483276 0.0913409 -0.172961
0.487581 0.0866321 -0.176438
0.483476 0.0899224 -0.177288
0.486844 0.0796448 -0.197898
0.486906 0.0710896 -0.20873
0.479697 0.0357002 -0.237074
-0.491577 -0.0752446 -0.373164
-0.472028 -0.148203 -0.373164
-0.440107 -0.216658 -0.373164
-0.396783 -0.27853 -0.373164
-0.343374 -0.331939 -0.373164
-0.281502 -0.375263 -0.373164
-0.213047 -0.407184 -0.373164
-0.140088 -0.426733 -0.373164
-0.0648438 -0.433316 -0.373164
-0.536348 0 -0.348344
-0.536348 0 -0.348344
-0.529185 -0.0818758 -0.348344
-0.507913 -0.161264 -0.348344
-0.473178 -0.235752 -0.348344
-0.426037 -0.303077 -0.348344
-0.367921 -0.361193 -0.348344
-0.300596 -0.408335 -0.348344
-0.226108 -0.443069 -0.348344
-0.14672 -0.464341 -0.348344
-0.0648438 -0.471504 -0.348344
-0.57185 0 -0.314604
-0.57185 0 -0.314604
-0.564147 -0.0880407 -0.314604
-0.541274 -0.173406 -0.314604
-0.503924 -0.253503 -0.314604
-0.453233 -0.325897 -0.314604
-0.390741 -0.388389 -0.314604
-0.318347 -0.43908 -0.314604
-0.23825 -0.47643 -0.314604
-0.152884 -0.499303 -0.314604
-0.0648438 -0.507006 -0.314604
-0.600502 0 -0.27049
-0.600502 0 -0.27049
-0.592364 -0.093016 -0.27049
-0.568198 -0.183206 -0.27049
-0.528737 -0.267829 -0.27049
-0.475182 -0.344314 -0.27049
-0.409158 -0.410338 -0.27049
-0.332673 -0.463893 -0.27049
-0.24805 -0.503354 -0.27049
-0.15786 -0.52752 -0.27049
-0.0648438 -0.535658 -0.27049
-0.61814 0 -0.214549
-0.61814 0 -0.214549
-0.609734 -0.0960788 -0.214549
-0.584772 -0.189238 -0.214549
-0.544012 -0.276648 -0.214549
-0.488693 -0.355652 -0.214549
-0.420496 -0.423849 -0.214549
-0.341492 -0.479168 -0.214549
-0.254082 -0.519928 -0.214549
-0.160923 -0.54489 -0.214549
-0.0648438 -0.553296 -0.214549
-0.6206 0 -0.145328
-0.6206 0 -0.145328
-0.612156 -0.096506 -0.145328
-0.587084 -0.19008 -0.145328
-0.546143 -0.277878 -0.145328
-0.490578 -0.357233 -0.145328
-0.422077 -0.425734 -0.145328
-0.342722 -0.481299 -0.145328
-0.254923 -0.52224 -0.145328
-0.16135 -0.547313 -0.145328
-0.0648438 -0.555756 -0.145328
-0.603717 0 -0.0613717
-0.603717 0 -0.0613717
-0.595531 -0.0935744 -0.0613717
-0.571219 -0.184306 -0.0613717
-0.531522 -0.269437 -0.0613717
-0.477645 -0.346381 -0.0613717
-0.411225 -0.412801 -0.0613717
-0.334281 -0.466678 -0.0613717
-0.249149 -0.506376 -0.0613717
-0.158418 -0.530687 -0.0613717
-0.0648438 -0.538873 -0.0613717
0.0104007 -0.426733 -0.373164
0.0833591 -0.407184 -0.373164
0.151814 -0.375263 -0.373164
0.213687 -0.331939 -0.373164
0.267096 -0.27853 -0.373164
0.310419 -0.216658 -0.373164
0.34234 -0.148203 -0.373164
0.361889 -0.0752446 -0.373164
0.368472 1.89409e-08 -0.373164
0.017032 -0.464341 -0.348344
0.0964201 -0.443069 -0.348344
0.170908 -0.408334 -0.348344
0.238233 -0.361193 -0.348344
0.296349 -0.303077 -0.348344
0.343491 -0.235752 -0.348344
0.378225 -0.161264 -0.348344
0.399497 -0.0818758 -0.348344
0.40666 2.06101e-08 -0.348344
0.0231968 -0.499303 -0.314604
0.108562 -0.47643 -0.314604
0.188659 -0.43908 -0.314604
0.261053 -0.388389 -0.314604
0.323545 -0.325897 -0.314604
0.374236 -0.253503 -0.314604
0.411586 -0.173406 -0.314604
0.43446 -0.0880406 -0.314604
0.442162 2.21619e-08 -0.314604
0.0281722 -0.52752 -0.27049
0.118362 -0.503354 -0.27049
0.202985 -0.463893 -0.27049
0.279471 -0.410338 -0.27049
0.345494 -0.344314 -0.27049
0.39905 -0.267829 -0.27049
0.43851 -0.183206 -0.27049
0.462676 -0.093016 -0.27049
0.031235 -0.54489 -0.214549
0.124395 -0.519928 -0.214549
0.211804 -0.479168 -0.214549
0.290808 -0.423849 -0.214549
0.359006 -0.355652 -0.214549
0.414325 -0.276648 -0.214549
0.455084 -0.189238 -0.214549
0.0316622 -0.547313 -0.145328
0.125236 -0.52224 -0.145328
0.213034 -0.481299 -0.145328
0.292389 -0.425734 -0.145328
0.36089 -0.357233 -0.145328
0.416455 -0.277878 -0.145328
0.457396 -0.19008 -0.145328
0.0287305 -0.530687 -0.0613717
0.119462 -0.506376 -0.0613717
0.204593 -0.466678 -0.0613717
0.281537 -0.412801 -0.0613717
0.347957 -0.346381 -0.0613717
0.401834 -0.269437 -0.0613717
0.441532 -0.184306 -0.0613717
0.465843 -0.0935744 -0.0613717
-0.0648439 0.433316 -0.373164
0.0104007 0.426733 -0.373164
0.0833591 0.407184 -0.373164
0.151814 0.375263 -0.373164
0.213687 0.331939 -0.373164
0.267096 0.27853 -0.373164
0.310419 0.216658 -0.373164
0.34234 0.148203 -0.373164
0.361889 0.0752446 -0.373164
-0.0648439 0.471504 -0.348344
0.017032 0.464341 -0.348344
0.0964201 0.443069 -0.348344
0.170908 0.408334 -0.348344
0.238233 0.361193 -0.348344
0.296349 0.303077 -0.348344
0.343491 0.235752 -0.348344
0.378225 0.161264 -0.348344
0.399497 0.0818758 -0.348344
-0.0648439 0.507006 -0.314604
0.0231968 0.499303 -0.314604
0.108562 0.47643 -0.314604
0.188659 0.43908 -0.314604
0.261053 0.388389 -0.314604
0.323545 0.325897 -0.314604
0.374236 0.253503 -0.314604
0.411586 0.173406 -0.314604
0.43446 0.0880406 -0.314604
-0.0648439 0.535658 -0.27049
0.0281722 0.52752 -0.27049
0.118362 0.503354 -0.27049
0.202985 0.463893 -0.27049
0.279471 0.410338 -0.27049
0.345494 0.344314 -0.27049
0.39905 0.267829 -0.27049
0.43851 0.183206 -0.27049
0.462676 0.093016 -0.27049
-0.0648439 0.553296 -0.214549
0.031235 0.54489 -0.214549
0.124395 0.519928 -0.214549
0.211804 0.479168 -0.214549
0.290808 0.423849 -0.214549
0.359006 0.355652 -0.214549
0.414325 0.276648 -0.214549
0.455084 0.189238 -0.214549
-0.0648439 0.555756 -0.145328
0.0316622 0.547313 -0.145328
0.125236 0.52224 -0.145328
0.213034 0.481299 -0.145328
0.292389 0.425734 -0.145328
0.36089 0.357233 -0.145328
0.416455 0.277878 -0.145328
0.457396 0.19008 -0.145328
-0.0648439 0.538873 -0.0613717
0.0287305 0.530687 -0.0613717
0.119462 0.506376 -0.0613717
0.204593 0.466678 -0.0613717
0.281537 0.412801 -0.0613717
0.347957 0.346381 -0.0613717
0.401834 0.269437 -0.0613717
0.441532 0.184306 -0.0613717
0.465843 0.0935744 -0.0613717
-0.491577 0.0752446 -0.373164
-0.472028 0.148203 -0.373164
-0.440107 0.216658 -0.373164
-0.396783 0.27853 -0.373164
-0.343374 0.331939 -0.373164
-0.281502 0.375263 -0.373164
-0.213047 0.407184 -0.373164
-0.140088 0.426733 -0.373164
-0.529185 0.0818758 -0.348344
-0.507913 0.161264 -0.348344
-0.473178 0.235752 -0.348344
-0.426037 0.303077 -0.348344
-0.367921 0.361193 -0.348344
-0.300596 0.408335 -0.348344
-0.226108 0.443069 -0.348344
-0.14672 0.464341 -0.348344
-0.564147 0.0880407 -0.314604
-0.541274 0.173406 -0.314604
-0.503924 0.253503 -0.314604
-0.453233 0.325897 -0.314604
-0.390741 0.388389 -0.314604
-0.318347 0.43908 -0.314604
-0.23825 0.47643 -0.314604
-0.152884 0.499303 -0.314604
-0.592364 0.093016 -0.27049
-0.568198 0.183206 -0.27049
-0.528737 0.267829 -0.27049
-0.475182 0.344314 -0.27049
-0.409158 0.410338 -0.27049
-0.332673 0.463893 -0.27049
-0.24805 0.503354 -0.27049
-0.15786 0.52752 -0.27049
-0.609734 0.0960788 -0.214549
-0.584772 0.189238 -0.214549
-0.544012 0.276648 -0.214549
-0.488693 0.355652 -0.214549
-0.420496 0.423849 -0.214549
-0.341492 0.479168 -0.214549
-0.254082 0.519928 -0.214549
-0.160923 0.54489 -0.214549
-0.612156 0.096506 -0.145328
-0.587084 0.19008 -0.145328
-0.546143 0.277878 -0.145328
-0.490578 0.357233 -0.145328
-0.422077 0.425734 -0.145328
-0.342722 0.481299 -0.145328
-0.254923 0.52224 -0.145328
-0.16135 0.547313 -0.145328
-0.595531 0.0935744 -0.0613717
-0.571219 0.184306 -0.0613717
-0.531522 0.269437 -0.0613717
-0.477645 0.346381 -0.0613717
-0.411225 0.412801 -0.0613717
-0.334281 0.466678 -0.0613717
-0.249149 0.506376 -0.0613717
-0.158418 0.530687 -0.0613717
-0.570261 0 0.0383786
-0.570261 0 0.0383786
-0.562582 -0.0877647 0.0383786
-0.53978 -0.172863 0.0383786
-0.502547 -0.252708 0.0383786
-0.452015 -0.324875 0.0383786
-0.389719 -0.387172 0.0383786
-0.317552 -0.437704 0.0383786
-0.237706 -0.474936 0.0383786
-0.152609 -0.497738 0.0383786
-0.0648438 -0.505417 0.0383786
-0.539859 0 0.11105
-0.539859 0 0.11105
-0.532643 -0.0824855 0.11105
-0.511212 -0.162465 0.11105
-0.476219 -0.237508 0.11105
-0.428727 -0.305334 0.11105
-0.370178 -0.363883 0.11105
-0.302351 -0.411375 0.11105
-0.227309 -0.446368 0.11105
-0.147329 -0.467799 0.11105
-0.0648438 -0.475015 0.11105
-0.512685 0 0.161052
-0.512685 0 0.161052
-0.505882 -0.0777669 0.161052
-0.485677 -0.153171 0.161052
-0.452686 -0.223921 0.161052
-0.40791 -0.287867 0.161052
-0.352711 -0.343067 0.161052
-0.288765 -0.387842 0.161052
-0.218015 -0.420833 0.161052
-0.142611 -0.441038 0.161052
-0.0648438 -0.447842 0.161052
-0.488912 0 0.192797
-0.488912 0 0.192797
-0.48247 -0.0736387 0.192797
-0.463338 -0.14504 0.192797
-0.432098 -0.212034 0.192797
-0.389699 -0.272586 0.192797
-0.33743 -0.324855 0.192797
-0.276878 -0.367254 0.192797
-0.138483 -0.417626 0.192797
-0.0648438 -0.424068 0.192797
-0.462576 -0.0701309 0.210693
-0.444355 -0.138131 0.210693
0.0229209 -0.497738 0.0383786
0.108019 -0.474936 0.0383786
0.187864 -0.437704 0.0383786
0.260032 -0.387172 0.0383786
0.322328 -0.324875 0.0383786
0.37286 -0.252708 0.0383786
0.410093 -0.172863 0.0383786
0.432894 -0.0877647 0.0383786
0.440573 2.20925e-08 0.0383786
0.0176417 -0.467799 0.11105
0.0976209 -0.446368 0.11105
0.172664 -0.411375 0.11105
0.24049 -0.363883 0.11105
0.299039 -0.305334 0.11105
0.346532 -0.237508 0.11105
0.381525 -0.162465 0.11105
0.402955 -0.0824855 0.11105
0.410171 2.07636e-08 0.11105
0.012923 -0.441038 0.161052
0.088327 -0.420833 0.161052
0.159077 -0.387842 0.161052
0.223023 -0.343067 0.161052
0.278223 -0.287867 0.161052
0.322998 -0.223921 0.161052
0.355989 -0.153171 0.161052
0.376194 -0.0777668 0.161052
0.382998 1.95758e-08 0.161052
0.00879483 -0.417626 0.192797
0.080196 -0.398494 0.192797
0.14719 -0.367254 0.192797
0.207742 -0.324855 0.192797
0.260011 -0.272586 0.192797
0.30241 -0.212034 0.192797
0.33365 -0.14504 0.192797
0.352782 -0.0736387 0.192797
0.359224 1.85366e-08 0.192797
0.284916 -0.201934 0.210693
0.314668 -0.138131 0.210693
0.332888 -0.0701309 0.210693
0.339024 1.76536e-08 0.210693
0.322569 1.69343e-08 0.219153
0.310031 1.63863e-08 0.222586
0.301584 1.60171e-08 0.225403
0.0590505 -0.340397 0.232015
0.116278 -0.313711 0.232015
-0.0648439 0.505417 0.0383786
0.0229209 0.497738 0.0383786
0.108019 0.474936 0.0383786
0.187864 0.437704 0.0383786
0.260032 0.387172 0.0383786
0.322328 0.324875 0.0383786
0.37286 0.252708 0.0383786
0.410093 0.172863 0.0383786
0.432894 0.0877647 0.0383786
-0.0648439 0.475015 0.11105
0.0176417 0.467799 0.11105
0.0976209 0.446368 0.11105
0.172664 0.411375 0.11105
0.24049 0.363883 0.11105
0.299039 0.305334 0.11105
0.346532 0.237508 0.11105
0.381525 0.162465 0.11105
0.402955 0.0824855 0.11105
-0.0648439 0.447842 0.161052
0.012923 0.441038 0.161052
0.088327 0.420833 0.161052
0.159077 0.387842 0.161052
0.223023 0.343067 0.161052
0.278223 0.287867 0.161052
0.322998 0.223921 0.161052
0.355989 0.153171 0.161052
0.376194 0.0777668 0.161052
0.00879483 0.417626 0.192797
0.207742 0.324855 0.192797
0.260011 0.272586 0.192797
0.30241 0.212034 0.192797
0.352782 0.0736387 0.192797
0.00528703 0.397732 0.210693
0.073287 0.379512 0.210693
0.13709 0.34976 0.210693
0.194757 0.30938 0.210693
0.244537 0.259601 0.210693
0.284916 0.201934 0.210693
0.314668 0.138131 0.210693
0.332888 0.0701309 0.210693
0.00242959 0.381527 0.219153
0.067659 0.364049 0.219153
0.128862 0.335509 0.219153
0.18418 0.296775 0.219153
0.231931 0.249024 0.219153
0.299205 0.132503 0.219153
0.316683 0.0672734 0.219153
0.000252481 0.36918 0.222586
0.0633709 0.352267 0.222586
0.122594 0.324651 0.222586
0.176121 0.287171 0.222586
0.222327 0.240965 0.222586
0.259807 0.187437 0.222586
0.287423 0.128215 0.222586
0.304336 0.0650963 0.222586
-0.00121439 0.360861 0.225403
0.0604817 0.344329 0.225403
0.11837 0.317335 0.225403
0.170691 0.2807 0.225403
0.215856 0.235535 0.225403
0.252492 0.183214 0.225403
0.279485 0.125326 0.225403
-0.00194106 0.356739 0.232015
0.0590505 0.340397 0.232015
0.116278 0.313711 0.232015
0.168001 0.277494 0.232015
0.21265 0.232845 0.232015
0.248868 0.181121 0.232015
0.275553 0.123894 0.232015
-0.562582 0.0877647 0.0383786
-0.53978 0.172863 0.0383786
-0.502547 0.252708 0.0383786
-0.452015 0.324875 0.0383786
-0.389719 0.387172 0.0383786
-0.317552 0.437704 0.0383786
-0.237706 0.474936 0.0383786
-0.152609 0.497738 0.0383786
-0.532643 0.0824855 0.11105
-0.511212 0.162465 0.11105
-0.476219 0.237508 0.11105
-0.428727 0.305334 0.11105
-0.370178 0.363883 0.11105
-0.302351 0.411375 0.11105
-0.227309 0.446368 0.11105
-0.147329 0.467799 0.11105
-0.505882 0.0777669 0.161052
-0.485677 0.153171 0.161052
-0.452686 0.223921 0.161052
-0.40791 0.287867 0.161052
-0.352711 0.343067 0.161052
-0.288765 0.387842 0.161052
-0.218015 0.420833 0.161052
-0.142611 0.441038 0.161052
-0.48247 0.0736387 0.192797
-0.463338 0.14504 0.192797
-0.432098 0.212034 0.192797
-0.389699 0.272586 0.192797
-0.462576 0.0701309 0.210693
-0.444355 0.138131 0.210693
-0.44637 0.0672734 0.219153
-0.428892 0.132503 0.219153
-0.434023 0.0650963 0.222586
-0.417111 0.128215 0.222586
-0.425704 0.0636295 0.225403
-0.409173 0.125326 0.225403
-0.421583 0.0629028 0.232015
-0.405241 0.123894 0.232015
-0.378555 0.181121 0.232015
-0.427263 0 0.236471
-0.427263 0 0.236471
-0.421757 -0.0629335 0.236471
-0.405407 -0.123955 0.236471
-0.378708 -0.18121 0.236471
-0.342473 -0.232959 0.236471
-0.297802 -0.277629 0.236471
-0.246054 -0.313864 0.236471
-0.188799 -0.340563 0.236471
-0.127777 -0.356913 0.236471
-0.0648438 -0.362419 0.236471
-0.429608 0 0.239941
-0.429608 0 0.239941
-0.424067 -0.0633407 0.239941
-0.40761 -0.124757 0.239941
-0.380739 -0.182382 0.239941
-0.344269 -0.234466 0.239941
-0.29931 -0.279426 0.239941
-0.247226 -0.315895 0.239941
-0.189601 -0.342766 0.239941
-0.128184 -0.359223 0.239941
-0.0648438 -0.364764 0.239941
-0.43385 0 0.242548
-0.43385 0 0.242548
-0.428244 -0.0640773 0.242548
-0.411596 -0.126208 0.242548
-0.384413 -0.184503 0.242548
-0.347519 -0.237193 0.242548
-0.302037 -0.282675 0.242548
-0.249347 -0.319569 0.242548
-0.191051 -0.346753 0.242548
-0.128921 -0.3634 0.242548
-0.0648438 -0.369006 0.242548
-0.434023 -0.0650963 0.244417
-0.417111 -0.128215 0.244417
-0.389495 -0.187437 0.244417
-0.352015 -0.240965 0.244417
-0.305809 -0.287171 0.244417
-0.252281 -0.324651 0.244417
-0.193059 -0.352267 0.244417
-0.12994 -0.36918 0.244417
-0.0648438 -0.374875 0.244417
-0.357548 -0.245608 0.24567
-0.310452 -0.292704 0.24567
-0.255893 -0.330907 0.24567
-0.195529 -0.359055 0.24567
-0.131195 -0.376294 0.24567
-0.0648438 -0.382098 0.24567
-0.363912 -0.250948 0.246429
-0.315792 -0.299068 0.246429
-0.260047 -0.338102 0.246429
-0.198371 -0.366862 0.246429
-0.132637 -0.384475 0.246429
-0.0648438 -0.390406 0.246429
-0.321655 -0.306055 0.246819
-0.00191037 -0.356913 0.236471
0.0591109 -0.340563 0.236471
0.116366 -0.313864 0.236471
0.168115 -0.277629 0.236471
0.212786 -0.232959 0.236471
0.249021 -0.18121 0.236471
0.275719 -0.123955 0.236471
0.297576 1.58419e-08 0.236471
-0.0015032 -0.359223 0.239941
0.0599129 -0.342766 0.239941
0.117538 -0.315895 0.239941
0.169622 -0.279426 0.239941
0.214582 -0.234466 0.239941
0.251051 -0.182382 0.239941
0.299921 1.59444e-08 0.239941
-0.00076656 -0.3634 0.242548
0.0613638 -0.346753 0.242548
0.119659 -0.319569 0.242548
0.172349 -0.282675 0.242548
0.217831 -0.237193 0.242548
0.254725 -0.184503 0.242548
0.281909 -0.126208 0.242548
0.304162 1.61298e-08 0.242548
0.000252481 -0.36918 0.244417
0.0633709 -0.352267 0.244417
0.122594 -0.324651 0.244417
0.176121 -0.287171 0.244417
0.222327 -0.240965 0.244417
0.259807 -0.187437 0.244417
0.287423 -0.128215 0.244417
0.304336 -0.0650963 0.244417
0.310031 1.63863e-08 0.244417
0.00150683 -0.376293 0.24567
0.0658415 -0.359055 0.24567
0.126205 -0.330907 0.24567
0.180764 -0.292704 0.24567
0.22786 -0.245608 0.24567
0.266063 -0.191049 0.24567
0.294211 -0.130685 0.24567
0.31145 -0.0663507 0.24567
0.00294945 -0.384475 0.246429
0.0686829 -0.366862 0.246429
0.130359 -0.338102 0.246429
0.186104 -0.299068 0.246429
0.234225 -0.250948 0.246429
0.273258 -0.195203 0.246429
0.302018 -0.133527 0.246429
0.319631 -0.0677933 0.246429
0.241211 -0.256811 0.246819
0.281157 -0.199763 0.246819
-0.00191037 0.356913 0.236471
0.0591109 0.340563 0.236471
0.116366 0.313864 0.236471
0.168115 0.277629 0.236471
0.212786 0.232959 0.236471
0.249021 0.18121 0.236471
-0.0015032 0.359223 0.239941
0.0599129 0.342766 0.239941
0.117538 0.315895 0.239941
0.169622 0.279426 0.239941
0.214582 0.234466 0.239941
0.251051 0.182382 0.239941
-0.00076656 0.3634 0.242548
0.0613638 0.346753 0.242548
0.119659 0.319569 0.242548
0.172349 0.282675 0.242548
0.217831 0.237193 0.242548
0.254725 0.184503 0.242548
0.0633709 0.352267 0.244417
0.122594 0.324651 0.244417
0.176121 0.287171 0.244417
0.222327 0.240965 0.244417
0.259807 0.187437 0.244417
0.287423 0.128215 0.244417
-0.0648439 0.382098 0.24567
0.00150683 0.376293 0.24567
0.0658415 0.359055 0.24567
0.126205 0.330907 0.24567
0.180764 0.292704 0.24567
-0.0648439 0.390406 0.246429
0.00294945 0.384475 0.246429
0.0686829 0.366862 0.246429
0.130359 0.338102 0.246429
0.186104 0.299068 0.246429
0.234225 0.250948 0.246429
-0.0648439 0.399527 0.246819
0.00453326 0.393457 0.246819
0.0718024 0.375433 0.246819
0.13492 0.346 0.246819
0.191967 0.306055 0.246819
0.241211 0.256811 0.246819
-0.0648439 0.40919 0.246963
0.00621122 0.402973 0.246963
0.0751073 0.384513 0.246963
0.139751 0.354369 0.246963
0.198178 0.313458 0.246963
0.248614 0.263022 0.246963
0.289525 0.204595 0.246963
-0.421757 0.0629335 0.236471
-0.405407 0.123955 0.236471
-0.378708 0.18121 0.236471
-0.342473 0.232959 0.236471
-0.246054 0.313864 0.236471
-0.424067 0.0633407 0.239941
-0.40761 0.124757 0.239941
-0.380739 0.182382 0.239941
-0.428244 0.0640773 0.242548
-0.411596 0.126208 0.242548
-0.384413 0.184503 0.242548
-0.302037 0.282675 0.242548
-0.249347 0.319569 0.242548
-0.191051 0.346753 0.242548
-0.434023 0.0650963 0.244417
-0.305809 0.287171 0.244417
-0.252281 0.324651 0.244417
-0.193059 0.352267 0.244417
-0.12994 0.36918 0.244417
-0.131195 0.376294 0.24567
-0.132637 0.384475 0.246429
-0.264607 0.346 0.246819
-0.134221 0.393457 0.246819
-0.419213 0.204595 0.246963
-0.378301 0.263022 0.246963
-0.327866 0.313458 0.246963
-0.269439 0.354369 0.246963
-0.204795 0.384513 0.246963
-0.135899 0.402974 0.246963
-0.439133 -0.0659973 0.246963
-0.421987 -0.129989 0.246963
-0.393988 -0.190032 0.246963
-0.355989 -0.2443 0.246963
-0.309144 -0.291146 0.246963
-0.254876 -0.329145 0.246963
-0.194833 -0.357143 0.246963
-0.130841 -0.37429 0.246963
-0.0648438 -0.380064 0.246963
-0.437374 0 0.246819
-0.431714 -0.0646892 0.246819
-0.414907 -0.127413 0.246819
-0.387464 -0.186265 0.246819
-0.350218 -0.239458 0.246819
-0.304301 -0.285374 0.246819
-0.251109 -0.32262 0.246819
-0.192257 -0.350064 0.246819
-0.129533 -0.36687 0.246819
-0.0648438 -0.37253 0.246819
-0.431245 0 0.246429
-0.425678 -0.0636248 0.246429
-0.409148 -0.125316 0.246429
-0.382156 -0.1832 0.246429
-0.345523 -0.235518 0.246429
-0.300362 -0.280679 0.246429
-0.248044 -0.317312 0.246429
-0.19016 -0.344304 0.246429
-0.128469 -0.360834 0.246429
-0.0648438 -0.366401 0.246429
-0.426335 0 0.24567
-0.420843 -0.0627723 0.24567
-0.404534 -0.123637 0.24567
-0.377905 -0.180746 0.24567
-0.341762 -0.232362 0.24567
-0.297206 -0.276918 0.24567
-0.245589 -0.313061 0.24567
-0.188481 -0.339691 0.24567
-0.127616 -0.355999 0.24567
-0.0648438 -0.361491 0.24567
-0.42246 0 0.244417
-0.417027 -0.0620995 0.244417
-0.400893 -0.122312 0.244417
-0.374549 -0.178808 0.244417
-0.294715 -0.27395 0.244417
-0.243652 -0.309705 0.244417
-0.187156 -0.33605 0.244417
-0.126943 -0.352183 0.244417
-0.419436 0 0.242548
-0.417077 0 0.239941
-0.411725 -0.0611646 0.239941
0.00115348 -0.37429 0.246963
0.0651455 -0.357143 0.246963
0.125188 -0.329145 0.246963
0.179456 -0.291146 0.246963
0.226302 -0.2443 0.246963
0.264301 -0.190032 0.246963
0.292299 -0.129989 0.246963
0.309446 -0.0659973 0.246963
0.31522 1.66131e-08 0.246963
-0.000154695 -0.36687 0.246819
0.0625689 -0.350064 0.246819
0.121421 -0.32262 0.246819
0.174614 -0.285374 0.246819
0.220531 -0.239458 0.246819
0.257776 -0.186265 0.246819
0.28522 -0.127413 0.246819
0.307686 1.62838e-08 0.246819
-0.00121903 -0.360834 0.246429
0.0604726 -0.344304 0.246429
0.118356 -0.317312 0.246429
0.170674 -0.280679 0.246429
0.215835 -0.235518 0.246429
0.252469 -0.1832 0.246429
0.27946 -0.125316 0.246429
0.301557 1.60159e-08 0.246429
-0.00207156 -0.355999 0.24567
0.0587935 -0.339691 0.24567
0.115902 -0.313061 0.24567
0.167518 -0.276918 0.24567
0.212075 -0.232362 0.24567
0.248217 -0.180746 0.24567
0.296647 1.58013e-08 0.24567
-0.00274437 -0.352183 0.244417
0.0574682 -0.33605 0.244417
0.113964 -0.309705 0.244417
0.244861 -0.178808 0.244417
0.292773 1.56319e-08 0.244417
0.112452 -0.307086 0.242548
0.289748 1.54997e-08 0.242548
-0.00367926 -0.346882 0.239941
0.0556269 -0.33099 0.239941
0.111273 -0.305043 0.239941
0.240199 -0.176116 0.239941
0.287389 1.53966e-08 0.239941
0.0651455 0.357143 0.246963
0.125188 0.329145 0.246963
0.179456 0.291146 0.246963
0.226302 0.2443 0.246963
0.292299 0.129989 0.246963
0.0625689 0.350064 0.246819
0.121421 0.32262 0.246819
0.174614 0.285374 0.246819
0.220531 0.239458 0.246819
0.257776 0.186265 0.246819
0.0604726 0.344304 0.246429
0.118356 0.317312 0.246429
0.170674 0.280679 0.246429
0.215835 0.235518 0.246429
0.252469 0.1832 0.246429
-0.00207156 0.355999 0.24567
0.0587935 0.339691 0.24567
0.115902 0.313061 0.24567
0.167518 0.276918 0.24567
0.212075 0.232362 0.24567
0.248217 0.180746 0.24567
-0.00274437 0.352183 0.244417
0.0574682 0.33605 0.244417
0.113964 0.309705 0.244417
0.165028 0.27395 0.244417
0.209106 0.229872 0.244417
0.244861 0.178808 0.244417
-0.0032696 0.349205 0.242548
0.0564338 0.333208 0.242548
0.112452 0.307086 0.242548
0.163084 0.271633 0.242548
0.206789 0.227927 0.242548
0.242242 0.177296 0.242548
-0.00367926 0.346882 0.239941
0.0556269 0.33099 0.239941
0.111273 0.305043 0.239941
0.161567 0.269826 0.239941
0.204982 0.226411 0.239941
0.240199 0.176116 0.239941
-0.00400552 0.345031 0.236471
0.0549843 0.329225 0.236471
0.110333 0.303415 0.236471
0.160359 0.268387 0.236471
0.203543 0.225203 0.236471
0.238572 0.175177 0.236471
-0.00428043 0.343472 0.232015
0.0544428 0.327737 0.232015
0.109542 0.302045 0.232015
0.159342 0.267174 0.232015
0.20233 0.224186 0.232015
0.237201 0.174385 0.232015
0.262894 0.119287 0.232015
-0.194833 0.357143 0.246963
-0.130841 0.37429 0.246963
-0.431714 0.0646892 0.246819
-0.304301 0.285374 0.246819
-0.251109 0.32262 0.246819
-0.192257 0.350064 0.246819
-0.425678 0.0636248 0.246429
-0.248044 0.317312 0.246429
-0.19016 0.344304 0.246429
-0.420843 0.0627723 0.24567
-0.404534 0.123637 0.24567
-0.377905 0.180746 0.24567
-0.245589 0.313061 0.24567
-0.417027 0.0620995 0.244417
-0.400893 0.122312 0.244417
-0.374549 0.178808 0.244417
-0.414049 0.0615743 0.242548
-0.398052 0.121278 0.242548
-0.411725 0.0611646 0.239941
-0.395834 0.120471 0.239941
-0.369886 0.176116 0.239941
-0.394069 0.119828 0.236471
-0.392581 0.119287 0.232015
0.259363 1.41715e-08 0.238742
0.254474 1.39578e-08 0.244138
0.244723 -0.054585 0.249977
0.249499 1.37404e-08 0.249977
-0.00460523 0.34163 0.228097
0.108606 0.300425 0.228097
0.235581 0.17345 0.228097
0.261136 0.118647 0.228097
0.25873 0.117771 0.226175
-0.00559932 0.335992 0.226027
0.255757 0.116689 0.226027
-0.00623861 0.332367 0.227432
0.227435 0.168747 0.227432
0.252297 0.11543 0.227432
-0.00695279 0.328316 0.230167
0.0491793 0.313276 0.230167
0.223873 0.166691 0.230167
0.248432 0.114023 0.230167
-0.00772689 0.323926 0.234011
0.0476546 0.309087 0.234011
0.0996179 0.284856 0.234011
0.187126 0.211428 0.234011
0.220012 0.164462 0.234011
0.244243 0.112498 0.234011
-0.00854588 0.319282 0.238742
0.0460415 0.304655 0.238742
0.0972596 0.280772 0.238742
0.143552 0.248357 0.238742
0.183513 0.208396 0.238742
0.215928 0.162104 0.238742
-0.00939485 0.314467 0.244138
0.0443693 0.300061 0.244138
0.0948152 0.276538 0.244138
0.14041 0.244612 0.244138
0.179768 0.205254 0.244138
0.211694 0.159659 0.244138
-0.0102588 0.309567 0.249977
0.0426677 0.295386 0.249977
0.0923276 0.272229 0.249977
0.137212 0.240801 0.249977
0.175957 0.202056 0.249977
0.207385 0.157171 0.249977
0.244723 0.054585 0.249977
-0.390823 0.118647 0.228097
-0.385444 0.116689 0.226027
-0.369499 0.110885 0.238742
-0.364905 0.109213 0.244138
-0.36023 0.107512 0.249977
-0.347278 0 0.262511
-0.342987 -0.0490442 0.262511
-0.330245 -0.0965982 0.262511
-0.309439 -0.141217 0.262511
-0.281201 -0.181545 0.262511
-0.246389 -0.216357 0.262511
-0.206061 -0.244595 0.262511
-0.161442 -0.265401 0.262511
-0.113888 -0.278143 0.262511
-0.0648438 -0.282434 0.262511
-0.317649 0 0.268827
-0.313808 -0.0438991 0.268827
-0.302403 -0.0864643 0.268827
-0.283779 -0.126402 0.268827
-0.258504 -0.1625 0.268827
-0.227344 -0.19366 0.268827
-0.191246 -0.218935 0.268827
-0.151308 -0.237559 0.268827
-0.108743 -0.248964 0.268827
-0.0648438 -0.252805 0.268827
-0.281367 0 0.274847
-0.278077 -0.0375988 0.274847
-0.268309 -0.0740551 0.274847
-0.252358 -0.108261 0.274847
-0.23071 -0.139178 0.274847
-0.204022 -0.165866 0.274847
-0.173105 -0.187514 0.274847
-0.138899 -0.203465 0.274847
-0.102443 -0.213233 0.274847
-0.0648438 -0.216523 0.274847
-0.24028 0 0.280326
-0.237614 -0.0304641 0.280326
-0.229699 -0.0600025 0.280326
-0.216776 -0.0877179 0.280326
-0.199235 -0.112768 0.280326
-0.177612 -0.134392 0.280326
-0.152562 -0.151932 0.280326
-0.124846 -0.164856 0.280326
-0.0953079 -0.17277 0.280326
-0.0648438 -0.175436 0.280326
-0.196236 0 0.285015
-0.19424 -0.022816 0.285015
-0.188312 -0.0449387 0.285015
-0.178633 -0.065696 0.285015
-0.165496 -0.0844572 0.285015
-0.149301 -0.100652 0.285015
-0.13054 -0.113789 0.285015
-0.109783 -0.123468 0.285015
-0.0876598 -0.129396 0.285015
-0.0648439 -0.131392 0.285015
-0.151083 0 0.28867
-0.149773 -0.0149753 0.28867
-0.145882 -0.0294956 0.28867
-0.139529 -0.0431197 0.28867
-0.130907 -0.0554337 0.28867
-0.120278 -0.0660633 0.28867
-0.107964 -0.0746856 0.28867
-0.0943395 -0.0810386 0.28867
-0.0798192 -0.0849293 0.28867
-0.0648439 -0.0862395 0.28867
-0.10667 0 0.291044
-0.106035 -0.00726303 0.291044
-0.104148 -0.0143054 0.291044
-0.101066 -0.0209131 0.291044
-0.0968845 -0.0268853 0.291044
-0.0917292 -0.0320407 0.291044
-0.0857569 -0.0362225 0.291044
-0.0791492 -0.0393037 0.291044
-0.0721069 -0.0411907 0.291044
-0.0648439 -0.0418261 0.291044
-0.0648439 0 0.29189
0.220412 -0.103825 0.256146
0.234107 -0.0527131 0.256146
0.238719 1.32692e-08 0.256146
-0.0157997 -0.278143 0.262511
0.0317544 -0.265401 0.262511
0.0763733 -0.244595 0.262511
0.116701 -0.216357 0.262511
0.151513 -0.181545 0.262511
0.179751 -0.141217 0.262511
0.200558 -0.0965982 0.262511
0.2133 -0.0490442 0.262511
0.21759 1.23456e-08 0.262511
-0.0209448 -0.248964 0.268827
0.0216205 -0.237559 0.268827
0.0615586 -0.218935 0.268827
0.097656 -0.19366 0.268827
0.128816 -0.1625 0.268827
0.154092 -0.126402 0.268827
0.172715 -0.0864643 0.268827
0.18412 -0.0438991 0.268827
0.187961 1.10505e-08 0.268827
-0.0272451 -0.213233 0.274847
0.00921129 -0.203465 0.274847
0.0434175 -0.187514 0.274847
0.0743343 -0.165866 0.274847
0.101022 -0.139178 0.274847
0.12267 -0.108261 0.274847
0.138621 -0.0740551 0.274847
0.148389 -0.0375988 0.274847
0.151679 9.46451e-09 0.274847
-0.0343798 -0.17277 0.280326
-0.00484131 -0.164856 0.280326
0.022874 -0.151932 0.280326
0.047924 -0.134392 0.280326
0.0695477 -0.112768 0.280326
0.0870879 -0.0877178 0.280326
0.100012 -0.0600025 0.280326
0.107927 -0.0304641 0.280326
0.110592 7.66854e-09 0.280326
-0.0420279 -0.129396 0.285015
-0.0199052 -0.123468 0.285015
0.000852127 -0.113789 0.285015
0.0196133 -0.100652 0.285015
0.0358083 -0.0844571 0.285015
0.0489449 -0.065696 0.285015
0.0586242 -0.0449387 0.285015
0.064552 -0.022816 0.285015
0.0665481 5.74333e-09 0.285015
-0.0498685 -0.0849293 0.28867
-0.0353482 -0.0810386 0.28867
-0.0217241 -0.0746856 0.28867
-0.00941018 -0.0660633 0.28867
0.0012194 -0.0554336 0.28867
0.00984171 -0.0431197 0.28867
-0.0575808 -0.0411907 0.291044
-0.0505385 -0.0393037 0.291044
-0.0121307 0.298951 0.256146
0.0389808 0.285256 0.256146
0.0869376 0.262893 0.256146
0.130283 0.232543 0.256146
0.167699 0.195126 0.256146
0.198049 0.151781 0.256146
-0.0648439 0.282434 0.262511
-0.0157997 0.278143 0.262511
0.0317544 0.265401 0.262511
0.0763733 0.244595 0.262511
0.116701 0.216357 0.262511
0.151513 0.181545 0.262511
0.179751 0.141217 0.262511
-0.0648439 0.252805 0.268827
-0.0209448 0.248964 0.268827
0.0216205 0.237559 0.268827
0.0615586 0.218935 0.268827
0.097656 0.19366 0.268827
0.128816 0.1625 0.268827
0.154092 0.126402 0.268827
0.172715 0.0864643 0.268827
0.18412 0.0438991 0.268827
-0.0648439 0.216523 0.274847
-0.0272451 0.213233 0.274847
0.00921129 0.203465 0.274847
0.0434175 0.187514 0.274847
0.0743343 0.165866 0.274847
0.101022 0.139178 0.274847
0.12267 0.108261 0.274847
0.138621 0.0740551 0.274847
0.148389 0.0375988 0.274847
-0.0648439 0.175436 0.280326
-0.0343798 0.17277 0.280326
-0.00484131 0.164856 0.280326
0.022874 0.151932 0.280326
0.047924 0.134392 0.280326
0.0695477 0.112768 0.280326
0.0870879 0.0877178 0.280326
0.100012 0.0600025 0.280326
0.107927 0.0304641 0.280326
-0.0648439 0.131392 0.285015
-0.0420279 0.129396 0.285015
-0.0199052 0.123468 0.285015
0.000852127 0.113789 0.285015
0.0196133 0.100652 0.285015
0.0358083 0.0844571 0.285015
0.0489449 0.065696 0.285015
0.0586242 0.0449387 0.285015
0.064552 0.022816 0.285015
-0.0648439 0.0862395 0.28867
-0.363795 0.0527131 0.256146
-0.3501 0.103825 0.256146
-0.342987 0.0490442 0.262511
-0.330245 0.0965982 0.262511
-0.309439 0.141217 0.262511
-0.281201 0.181545 0.262511
-0.246389 0.216357 0.262511
-0.206061 0.244595 0.262511
-0.161442 0.265401 0.262511
-0.113888 0.278143 0.262511
-0.313808 0.0438991 0.268827
-0.302403 0.0864643 0.268827
-0.283779 0.126402 0.268827
-0.258504 0.1625 0.268827
-0.227344 0.19366 0.268827
-0.191246 0.218935 0.268827
-0.151308 0.237559 0.268827
-0.108743 0.248964 0.268827
-0.278077 0.0375988 0.274847
-0.268309 0.0740551 0.274847
-0.252358 0.108261 0.274847
-0.23071 0.139178 0.274847
-0.204022 0.165866 0.274847
-0.173105 0.187514 0.274847
-0.138899 0.203465 0.274847
-0.102443 0.213233 0.274847
-0.237614 0.0304641 0.280326
-0.229699 0.0600025 0.280326
-0.216776 0.0877179 0.280326
-0.199235 0.112768 0.280326
-0.177612 0.134392 0.280326
-0.152562 0.151932 0.280326
-0.124846 0.164856 0.280326
-0.0953079 0.17277 0.280326
-0.19424 0.022816 0.285015
-0.188312 0.0449387 0.285015
-0.178633 0.065696 0.285015
-0.165496 0.0844572 0.285015
-0.149301 0.100652 0.285015
-0.13054 0.113789 0.285015
-0.109783 0.123468 0.285015
-0.0876598 0.129396 0.285015
-0.149773 0.0149753 0.28867
-0.145882 0.0294956 0.28867
-0.139529 0.0431197 0.28867
-0.130907 0.0554337 0.28867
-0.120278 0.0660633 0.28867
-0.107964 0.0746856 0.28867
-0.0943395 0.0810386 0.28867
-0.106035 0.00726303 0.291044
-0.104148 0.0143054 0.291044
